<mxfile host="65bd71144e">
    <diagram id="VHv5Z9Z1dYZAGBWm9VqF" name="Page-1">
        <mxGraphModel dx="1558" dy="1618" grid="0" gridSize="10" guides="1" tooltips="1" connect="1" arrows="1" fold="1" page="0" pageScale="1" pageWidth="850" pageHeight="1100" background="#FFFFFF" math="0" shadow="0">
            <root>
                <mxCell id="0"/>
                <mxCell id="1" parent="0"/>
                <mxCell id="193" style="edgeStyle=none;html=1;entryX=0.5;entryY=1;entryDx=0;entryDy=0;strokeColor=#000000;strokeWidth=4;" parent="1" source="107" target="182" edge="1">
                    <mxGeometry relative="1" as="geometry"/>
                </mxCell>
                <mxCell id="107" value="&lt;font style=&quot;font-size: 25px;&quot; color=&quot;#000000&quot;&gt;&lt;b&gt;Multiplier 1&lt;/b&gt;&lt;/font&gt;" style="rounded=1;whiteSpace=wrap;html=1;fillColor=none;strokeColor=#000000;strokeWidth=3;" parent="1" vertex="1">
                    <mxGeometry x="1230" y="1513" width="174" height="84" as="geometry"/>
                </mxCell>
                <mxCell id="340" style="edgeStyle=none;html=1;entryX=0.5;entryY=1;entryDx=0;entryDy=0;strokeColor=#000000;strokeWidth=4;fontSize=20;fontColor=#000000;" parent="1" source="109" target="291" edge="1">
                    <mxGeometry relative="1" as="geometry"/>
                </mxCell>
                <mxCell id="109" value="&lt;font style=&quot;font-size: 34px;&quot; color=&quot;#000000&quot;&gt;ALU&lt;/font&gt;" style="rounded=1;whiteSpace=wrap;html=1;fillColor=none;strokeColor=#000000;strokeWidth=3;" parent="1" vertex="1">
                    <mxGeometry x="745" y="686" width="290" height="86" as="geometry"/>
                </mxCell>
                <mxCell id="112" style="edgeStyle=none;html=1;exitX=0.5;exitY=0;exitDx=0;exitDy=0;entryX=0.327;entryY=0.989;entryDx=0;entryDy=0;entryPerimeter=0;strokeColor=#000000;strokeWidth=4;fontSize=23;fontColor=#000000;" parent="1" source="113" target="109" edge="1">
                    <mxGeometry relative="1" as="geometry"/>
                </mxCell>
                <mxCell id="113" value="&lt;b&gt;MUX &lt;br&gt;ALU_opA&lt;/b&gt;" style="shape=trapezoid;perimeter=trapezoidPerimeter;whiteSpace=wrap;html=1;fixedSize=1;rounded=0;strokeColor=#000000;strokeWidth=3;fontSize=19;fontColor=#000000;fillColor=none;rotation=0;direction=east;" parent="1" vertex="1">
                    <mxGeometry x="634" y="835" width="190" height="90" as="geometry"/>
                </mxCell>
                <mxCell id="114" style="edgeStyle=none;html=1;strokeColor=#000000;strokeWidth=4;fontSize=23;fontColor=#000000;" parent="1" source="115" target="107" edge="1">
                    <mxGeometry relative="1" as="geometry"/>
                </mxCell>
                <mxCell id="115" value="&lt;font style=&quot;font-size: 21px;&quot;&gt;&lt;b&gt;&lt;br&gt;MUX &lt;br&gt;M1_opA&lt;/b&gt;&lt;/font&gt;" style="shape=trapezoid;perimeter=trapezoidPerimeter;whiteSpace=wrap;html=1;fixedSize=1;rounded=0;strokeColor=#000000;strokeWidth=3;fontSize=19;fontColor=#000000;fillColor=none;rotation=0;direction=west;" parent="1" vertex="1">
                    <mxGeometry x="1036" y="1326" width="204" height="94" as="geometry"/>
                </mxCell>
                <mxCell id="116" style="edgeStyle=none;html=1;entryX=0.75;entryY=0;entryDx=0;entryDy=0;strokeColor=#000000;strokeWidth=4;fontSize=23;fontColor=#000000;exitX=0.5;exitY=0;exitDx=0;exitDy=0;" parent="1" source="117" target="166" edge="1">
                    <mxGeometry relative="1" as="geometry"/>
                </mxCell>
                <mxCell id="117" value="&lt;font style=&quot;font-size: 19px;&quot;&gt;&lt;b&gt;&lt;br&gt;MUX &lt;br&gt;M2_opB&lt;/b&gt;&lt;/font&gt;" style="shape=trapezoid;perimeter=trapezoidPerimeter;whiteSpace=wrap;html=1;fixedSize=1;rounded=0;strokeColor=#000000;strokeWidth=3;fontSize=19;fontColor=#000000;fillColor=none;rotation=0;direction=west;" parent="1" vertex="1">
                    <mxGeometry x="538" y="1327" width="199" height="92" as="geometry"/>
                </mxCell>
                <mxCell id="118" style="edgeStyle=none;html=1;exitX=0.5;exitY=0;exitDx=0;exitDy=0;entryX=0.25;entryY=0;entryDx=0;entryDy=0;strokeColor=#000000;strokeWidth=4;fontSize=23;fontColor=#000000;" parent="1" source="119" target="166" edge="1">
                    <mxGeometry relative="1" as="geometry"/>
                </mxCell>
                <mxCell id="119" value="&lt;font style=&quot;font-size: 21px;&quot;&gt;&lt;b&gt;&lt;br&gt;MUX &lt;br&gt;M2_opA&lt;/b&gt;&lt;/font&gt;" style="shape=trapezoid;perimeter=trapezoidPerimeter;whiteSpace=wrap;html=1;fixedSize=1;rounded=0;strokeColor=#000000;strokeWidth=3;fontSize=19;fontColor=#000000;fillColor=none;rotation=0;direction=west;" parent="1" vertex="1">
                    <mxGeometry x="220" y="1329" width="186" height="92" as="geometry"/>
                </mxCell>
                <mxCell id="122" value="&lt;b&gt;&lt;font style=&quot;font-size: 19px;&quot; color=&quot;#000000&quot;&gt;REG t4&lt;/font&gt;&lt;span style=&quot;color: rgba(0, 0, 0, 0); font-family: monospace; text-align: start; font-size: 0px;&quot;&gt;%3CmxGraphModel%3E%3Croot%3E%3CmxCell%20id%3D%220%22%2F%3E%3CmxCell%20id%3D%221%22%20parent%3D%220%22%2F%3E%3CmxCell%20id%3D%222%22%20value%3D%22%26lt%3Bfont%20style%3D%26quot%3Bfont-size%3A%2019px%3B%26quot%3B%20color%3D%26quot%3B%23000000%26quot%3B%26gt%3BMultiplier%201%26lt%3B%2Ffont%26gt%3B%22%20style%3D%22rounded%3D1%3BwhiteSpace%3Dwrap%3Bhtml%3D1%3BfillColor%3Dnone%3BstrokeColor%3D%23000000%3BstrokeWidth%3D3%3B%22%20vertex%3D%221%22%20parent%3D%221%22%3E%3CmxGeometry%20x%3D%22220%22%20y%3D%22680%22%20width%3D%22140%22%20height%3D%2250%22%20as%3D%22geometry%22%2F%3E%3C%2FmxCell%3E%3C%2Froot%3E%3C%2FmxGraphModel%3E&lt;/span&gt;&lt;/b&gt;" style="rounded=0;whiteSpace=wrap;html=1;fillColor=none;strokeColor=#000000;strokeWidth=3;" parent="1" vertex="1">
                    <mxGeometry x="674" y="1138" width="140" height="50" as="geometry"/>
                </mxCell>
                <mxCell id="124" value="&lt;b&gt;&lt;font style=&quot;font-size: 19px;&quot; color=&quot;#000000&quot;&gt;REG t5&lt;/font&gt;&lt;span style=&quot;color: rgba(0, 0, 0, 0); font-family: monospace; font-size: 0px; text-align: start;&quot;&gt;%3CmxGraphModel%3E%3Croot%3E%3CmxCell%20id%3D%220%22%2F%3E%3CmxCell%20id%3D%221%22%20parent%3D%220%22%2F%3E%3CmxCell%20id%3D%222%22%20value%3D%22%26lt%3Bfont%20style%3D%26quot%3Bfont-size%3A%2019px%3B%26quot%3B%20color%3D%26quot%3B%23000000%26quot%3B%26gt%3BMultiplier%201%26lt%3B%2Ffont%26gt%3B%22%20style%3D%22rounded%3D1%3BwhiteSpace%3Dwrap%3Bhtml%3D1%3BfillColor%3Dnone%3BstrokeColor%3D%23000000%3BstrokeWidth%3D3%3B%22%20vertex%3D%221%22%20parent%3D%221%22%3E%3CmxGeometry%20x%3D%22220%22%20y%3D%22680%22%20width%3D%22140%22%20height%3D%2250%22%20as%3D%22geometry%22%2F%3E%3C%2FmxCell%3E%3C%2Froot%3E%3C%2FmxGraphModel%3E&lt;/span&gt;&lt;/b&gt;" style="rounded=0;whiteSpace=wrap;html=1;fillColor=none;strokeColor=#000000;strokeWidth=3;" parent="1" vertex="1">
                    <mxGeometry x="814" y="1138" width="140" height="50" as="geometry"/>
                </mxCell>
                <mxCell id="126" value="&lt;b&gt;&lt;font style=&quot;font-size: 19px;&quot; color=&quot;#000000&quot;&gt;REG t6&lt;/font&gt;&lt;span style=&quot;color: rgba(0, 0, 0, 0); font-family: monospace; font-size: 0px; text-align: start;&quot;&gt;%3E%3Croot%3E%3CmxCell%20id%3D%220%22%2F%3E%3CmxCell%20id%3D%221%22%20parent%3D%220%22%2F%3E%3CmxCell%20id%3D%222%22%20value%3D%22%26lt%3Bfont%20style%3D%26quot%3Bfont-size%3A%2019px%3B%26quot%3B%20color%3D%26quot%3B%23000000%26quot%3B%26gt%3BMultiplier%201%26lt%3B%2Ffont%26gt%3B%22%20style%3D%22rounded%3D1%3BwhiteSpace%3Dwrap%3Bhtml%3D1%3BfillColor%3Dnone%3BstrokeColor%3D%23000000%3BstrokeWidth%3D3%3B%22%20vertex%3D%221%22%20parent%3D%221%22%3E%3CmxGeometry%20x%3D%22220%22%20y%3D%22680%22%20width%3D%22140%22%20height%3D%2250%22%20as%3D%22geometry%22%2F%3E%3C%2FmxCell%3E%3C%2Froot%3E%3C%2FmxGraphModel%3E&lt;/span&gt;&lt;/b&gt;" style="rounded=0;whiteSpace=wrap;html=1;fillColor=none;strokeColor=#000000;strokeWidth=3;" parent="1" vertex="1">
                    <mxGeometry x="955" y="1138" width="140" height="50" as="geometry"/>
                </mxCell>
                <mxCell id="128" value="&lt;b&gt;&lt;font style=&quot;font-size: 19px;&quot; color=&quot;#000000&quot;&gt;REG t1&lt;/font&gt;&lt;span style=&quot;color: rgba(0, 0, 0, 0); font-family: monospace; text-align: start; font-size: 0px;&quot;&gt;%3CmxGraphModel%3E%3Croot%3E%3CmxCell%20id%3D%220%22%2F%3E%3CmxCell%20id%3D%221%22%20parent%3D%220%22%2F%3E%3CmxCell%20id%3D%222%22%20value%3D%22%26lt%3Bfont%20style%3D%26quot%3Bfont-size%3A%2019px%3B%26quot%3B%20color%3D%26quot%3B%23000000%26quot%3B%26gt%3BMultiplier%201%26lt%3B%2Ffont%26gt%3B%22%20style%3D%22rounded%3D1%3BwhiteSpace%3Dwrap%3Bhtml%3D1%3BfillColor%3Dnone%3BstrokeColor%3D%23000000%3BstrokeWidth%3D3%3B%22%20vertex%3D%221%22%20parent%3D%221%22%3E%3CmxGeometry%20x%3D%22220%22%20y%3D%22680%22%20width%3D%22140%22%20height%3D%2250%22%20as%3D%22geometry%22%2F%3E%3C%2FmxCell%3E%3C%2Froot%3E%3C%2FmxGraphModel%3E&lt;/span&gt;&lt;/b&gt;" style="rounded=0;whiteSpace=wrap;html=1;fillColor=none;strokeColor=#000000;strokeWidth=3;" parent="1" vertex="1">
                    <mxGeometry x="253" y="1138" width="140" height="50" as="geometry"/>
                </mxCell>
                <mxCell id="130" value="&lt;b&gt;&lt;font style=&quot;font-size: 19px;&quot; color=&quot;#000000&quot;&gt;REG t2&lt;/font&gt;&lt;span style=&quot;color: rgba(0, 0, 0, 0); font-family: monospace; font-size: 0px; text-align: start;&quot;&gt;%3CmxGraphModel%3E%3Croot%3E%3CmxCell%20id%3D%220%22%2F%3E%3CmxCell%20id%3D%221%22%20parent%3D%220%22%2F%3E%3CmxCell%20id%3D%222%22%20value%3D%22%26lt%3Bfont%20style%3D%26quot%3Bfont-size%3A%2019px%3B%26quot%3B%20color%3D%26quot%3B%23000000%26quot%3B%26gt%3BMultiplier%201%26lt%3B%2Ffont%26gt%3B%22%20style%3D%22rounded%3D1%3BwhiteSpace%3Dwrap%3Bhtml%3D1%3BfillColor%3Dnone%3BstrokeColor%3D%23000000%3BstrokeWidth%3D3%3B%22%20vertex%3D%221%22%20parent%3D%221%22%3E%3CmxGeometry%20x%3D%22220%22%20y%3D%22680%22%20width%3D%22140%22%20height%3D%2250%22%20as%3D%22geometry%22%2F%3E%3C%2FmxCell%3E%3C%2Froot%3E%3C%2FmxGraphModel%3E&lt;/span&gt;&lt;/b&gt;" style="rounded=0;whiteSpace=wrap;html=1;fillColor=none;strokeColor=#000000;strokeWidth=3;" parent="1" vertex="1">
                    <mxGeometry x="394" y="1138" width="140" height="50" as="geometry"/>
                </mxCell>
                <mxCell id="132" value="&lt;b&gt;&lt;font style=&quot;font-size: 19px;&quot; color=&quot;#000000&quot;&gt;REG t3&lt;/font&gt;&lt;span style=&quot;color: rgba(0, 0, 0, 0); font-family: monospace; font-size: 0px; text-align: start;&quot;&gt;3CmxGraphModel%3E%3Croot%3E%3CmxCell%20id%3D%220%22%2F%3E%3CmxCell%20id%3D%221%22%20parent%3D%220%22%2F%3E%3CmxCell%20id%3D%222%22%20value%3D%22%26lt%3Bfont%20style%3D%26quot%3Bfont-size%3A%2019px%3B%26quot%3B%20color%3D%26quot%3B%23000000%26quot%3B%26gt%3BMultiplier%201%26lt%3B%2Ffont%26gt%3B%22%20style%3D%22rounded%3D1%3BwhiteSpace%3Dwrap%3Bhtml%3D1%3BfillColor%3Dnone%3BstrokeColor%3D%23000000%3BstrokeWidth%3D3%3B%22%20vertex%3D%221%22%20parent%3D%221%22%3E%3CmxGeometry%20x%3D%22220%22%20y%3D%22680%22%20width%3D%22140%22%20height%3D%2250%22%20as%3D%22geometry%22%2F%3E%3C%2FmxCell%3E%3C%2Froot%3E%3C%2FmxGraphModel%3E&lt;/span&gt;&lt;/b&gt;" style="rounded=0;whiteSpace=wrap;html=1;fillColor=none;strokeColor=#000000;strokeWidth=3;" parent="1" vertex="1">
                    <mxGeometry x="534" y="1138" width="140" height="50" as="geometry"/>
                </mxCell>
                <mxCell id="134" value="&lt;b&gt;&lt;font style=&quot;font-size: 19px;&quot; color=&quot;#000000&quot;&gt;REG t7&lt;/font&gt;&lt;span style=&quot;color: rgba(0, 0, 0, 0); font-family: monospace; font-size: 0px; text-align: start;&quot;&gt;%3CmxGraphModel%3E%3Croot%3E%3CmxCell%20id%3D%220%22%2F%3E%3CmxCell%20id%3D%221%22%20parent%3D%220%22%2F%3E%3CmxCell%20id%3D%222%22%20value%3D%22%26lt%3Bfont%20style%3D%26quot%3Bfont-size%3A%2019px%3B%26quot%3B%20color%3D%26quot%3B%23000000%26quot%3B%26gt%3BMultiplier%201%26lt%3B%2Ffont%26gt%3B%22%20style%3D%22rounded%3D1%3BwhiteSpace%3Dwrap%3Bhtml%3D1%3BfillColor%3Dnone%3BstrokeColor%3D%23000000%3BstrokeWidth%3D3%3B%22%20vertex%3D%221%22%20parent%3D%221%22%3E%3CmxGeometry%20x%3D%22220%22%20y%3D%22680%22%20width%3D%22140%22%20height%3D%2250%22%20as%3D%22geometry%22%2F%3E%3C%2FmxCell%3E%3C%2Froot%3E%3C%2FmxGraphModel%3E&lt;/span&gt;&lt;/b&gt;" style="rounded=0;whiteSpace=wrap;html=1;fillColor=none;strokeColor=#000000;strokeWidth=3;" parent="1" vertex="1">
                    <mxGeometry x="1095" y="1138" width="140" height="50" as="geometry"/>
                </mxCell>
                <mxCell id="136" value="&lt;b&gt;&lt;font style=&quot;font-size: 19px;&quot; color=&quot;#000000&quot;&gt;REG t8&lt;/font&gt;&lt;span style=&quot;color: rgba(0, 0, 0, 0); font-family: monospace; font-size: 0px; text-align: start;&quot;&gt;%3CmxGraphModel%3E%3Croot%3E%3CmxCell%20id%3D%220%22%2F%3E%3CmxCell%20id%3D%221%22%20parent%3D%220%22%2F%3E%3CmxCell%20id%3D%222%22%20value%3D%22%26lt%3Bfont%20style%3D%26quot%3Bfont-size%3A%2019px%3B%26quot%3B%20color%3D%26quot%3B%23000000%26quot%3B%26gt%3BMultiplier%201%26lt%3B%2Ffont%26gt%3B%22%20style%3D%22rounded%3D1%3BwhiteSpace%3Dwrap%3Bhtml%3D1%3BfillColor%3Dnone%3BstrokeColor%3D%23000000%3BstrokeWidth%3D3%3B%22%20vertex%3D%221%22%20parent%3D%221%22%3E%3CmxGeometry%20x%3D%22220%22%20y%3D%22680%22%20width%3D%22140%22%20height%3D%2250%22%20as%3D%22geometry%22%2F%3E%3C%2FmxCell%3E%3C%2Froot%3E%3C%2FmxGraphModel%3E&lt;/span&gt;&lt;/b&gt;" style="rounded=0;whiteSpace=wrap;html=1;fillColor=none;strokeColor=#000000;strokeWidth=3;" parent="1" vertex="1">
                    <mxGeometry x="1235" y="1138" width="140" height="50" as="geometry"/>
                </mxCell>
                <mxCell id="138" value="&lt;b&gt;&lt;font style=&quot;font-size: 19px;&quot; color=&quot;#000000&quot;&gt;REG t9&lt;/font&gt;&lt;span style=&quot;color: rgba(0, 0, 0, 0); font-family: monospace; font-size: 0px; text-align: start;&quot;&gt;%3E%3Croot%3E%3CmxCell%20id%3D%220%22%2F%3E%3CmxCell%20id%3D%221%22%20parent%3D%220%22%2F%3E%3CmxCell%20id%3D%222%22%20value%3D%22%26lt%3Bfont%20style%3D%26quot%3Bfont-size%3A%2019px%3B%26quot%3B%20color%3D%26quot%3B%23000000%26quot%3B%26gt%3BMultiplier%201%26lt%3B%2Ffont%26gt%3B%22%20style%3D%22rounded%3D1%3BwhiteSpace%3Dwrap%3Bhtml%3D1%3BfillColor%3Dnone%3BstrokeColor%3D%23000000%3BstrokeWidth%3D3%3B%22%20vertex%3D%221%22%20parent%3D%221%22%3E%3CmxGeometry%20x%3D%22220%22%20y%3D%22680%22%20width%3D%22140%22%20height%3D%2250%22%20as%3D%22geometry%22%2F%3E%3C%2FmxCell%3E%3C%2Froot%3E%3C%2FmxGraphModel%3E&lt;/span&gt;&lt;/b&gt;" style="rounded=0;whiteSpace=wrap;html=1;fillColor=none;strokeColor=#000000;strokeWidth=3;" parent="1" vertex="1">
                    <mxGeometry x="1375" y="1138" width="140" height="50" as="geometry"/>
                </mxCell>
                <mxCell id="141" value="&lt;b&gt;&lt;font style=&quot;font-size: 19px;&quot; color=&quot;#000000&quot;&gt;REG A_in&lt;/font&gt;&lt;span style=&quot;color: rgba(0, 0, 0, 0); font-family: monospace; font-size: 0px; text-align: start;&quot;&gt;%3E%3Croot%3E%3CmxCell%20id%3D%220%22%2F%3E%3CmxCell%20id%3D%221%22%20parent%3D%220%22%2F%3E%3CmxCell%20id%3D%222%22%20value%3D%22%26lt%3Bfont%20style%3D%26quot%3Bfont-size%3A%2019px%3B%26quot%3B%20color%3D%26quot%3B%23000000%26quot%3B%26gt%3BMultiplier%201%26lt%3B%2Ffont%26gt%3B%22%20style%3D%22rounded%3D1%3BwhiteSpace%3Dwrap%3Bhtml%3D1%3BfillColor%3Dnone%3BstrokeColor%3D%23000000%3BstrokeWidth%3D3%3B%22%20vertex%3D%221%22%20parent%3D%221%22%3E%3CmxGeometry%20x%3D%22220%22%20y%3D%22680%22%20width%3D%22140%22%20height%3D%2250%22%20as%3D%22geometry%22%2F%3E%3C%2FmxCell%3E%3C%2Froot%3E%3C%2FmxGraphModel%3E&lt;/span&gt;&lt;/b&gt;" style="rounded=0;whiteSpace=wrap;html=1;fillColor=none;strokeColor=#000000;strokeWidth=3;" parent="1" vertex="1">
                    <mxGeometry x="1212" y="1061" width="140" height="50" as="geometry"/>
                </mxCell>
                <mxCell id="143" value="&lt;b&gt;&lt;font style=&quot;font-size: 19px;&quot; color=&quot;#000000&quot;&gt;REG B_in&lt;/font&gt;&lt;span style=&quot;color: rgba(0, 0, 0, 0); font-family: monospace; font-size: 0px; text-align: start;&quot;&gt;%3E%3Croot%3E%3CmxCell%20id%3D%220%22%2F%3E%3CmxCell%20id%3D%221%22%20parent%3D%220%22%2F%3E%3CmxCell%20id%3D%222%22%20value%3D%22%26lt%3Bfont%20style%3D%26quot%3Bfont-size%3A%2019px%3B%26quot%3B%20color%3D%26quot%3B%23000000%26quot%3B%26gt%3BMultiplier%201%26lt%3B%2Ffont%26gt%3B%22%20style%3D%22rounded%3D1%3BwhiteSpace%3Dwrap%3Bhtml%3D1%3BfillColor%3Dnone%3BstrokeColor%3D%23000000%3BstrokeWidth%3D3%3B%22%20vertex%3D%221%22%20parent%3D%221%22%3E%3CmxGeometry%20x%3D%22220%22%20y%3D%22680%22%20width%3D%22140%22%20height%3D%2250%22%20as%3D%22geometry%22%2F%3E%3C%2FmxCell%3E%3C%2Froot%3E%3C%2FmxGraphModel%3E&lt;/span&gt;&lt;/b&gt;" style="rounded=0;whiteSpace=wrap;html=1;fillColor=none;strokeColor=#000000;strokeWidth=3;" parent="1" vertex="1">
                    <mxGeometry x="1070" y="1061" width="140" height="50" as="geometry"/>
                </mxCell>
                <mxCell id="145" value="&lt;b&gt;&lt;font style=&quot;font-size: 19px;&quot; color=&quot;#000000&quot;&gt;REG C_in&lt;/font&gt;&lt;span style=&quot;color: rgba(0, 0, 0, 0); font-family: monospace; font-size: 0px; text-align: start;&quot;&gt;%3E%3Croot%3E%3CmxCell%20id%3D%220%22%2F%3E%3CmxCell%20id%3D%221%22%20parent%3D%220%22%2F%3E%3CmxCell%20id%3D%222%22%20value%3D%22%26lt%3Bfont%20style%3D%26quot%3Bfont-size%3A%2019px%3B%26quot%3B%20color%3D%26quot%3B%23000000%26quot%3B%26gt%3BMultiplier%201%26lt%3B%2Ffont%26gt%3B%22%20style%3D%22rounded%3D1%3BwhiteSpace%3Dwrap%3Bhtml%3D1%3BfillColor%3Dnone%3BstrokeColor%3D%23000000%3BstrokeWidth%3D3%3B%22%20vertex%3D%221%22%20parent%3D%221%22%3E%3CmxGeometry%20x%3D%22220%22%20y%3D%22680%22%20width%3D%22140%22%20height%3D%2250%22%20as%3D%22geometry%22%2F%3E%3C%2FmxCell%3E%3C%2Froot%3E%3C%2FmxGraphModel%3E&lt;/span&gt;&lt;/b&gt;" style="rounded=0;whiteSpace=wrap;html=1;fillColor=none;strokeColor=#000000;strokeWidth=3;" parent="1" vertex="1">
                    <mxGeometry x="885" y="1061" width="140" height="50" as="geometry"/>
                </mxCell>
                <mxCell id="147" value="&lt;b&gt;&lt;font style=&quot;font-size: 19px;&quot; color=&quot;#000000&quot;&gt;REG D_in&lt;/font&gt;&lt;span style=&quot;color: rgba(0, 0, 0, 0); font-family: monospace; font-size: 0px; text-align: start;&quot;&gt;%3E%3Croot%3E%3CmxCell%20id%3D%220%22%2F%3E%3CmxCell%20id%3D%221%22%20parent%3D%220%22%2F%3E%3CmxCell%20id%3D%222%22%20value%3D%22%26lt%3Bfont%20style%3D%26quot%3Bfont-size%3A%2019px%3B%26quot%3B%20color%3D%26quot%3B%23000000%26quot%3B%26gt%3BMultiplier%201%26lt%3B%2Ffont%26gt%3B%22%20style%3D%22rounded%3D1%3BwhiteSpace%3Dwrap%3Bhtml%3D1%3BfillColor%3Dnone%3BstrokeColor%3D%23000000%3BstrokeWidth%3D3%3B%22%20vertex%3D%221%22%20parent%3D%221%22%3E%3CmxGeometry%20x%3D%22220%22%20y%3D%22680%22%20width%3D%22140%22%20height%3D%2250%22%20as%3D%22geometry%22%2F%3E%3C%2FmxCell%3E%3C%2Froot%3E%3C%2FmxGraphModel%3E&lt;/span&gt;&lt;/b&gt;" style="rounded=0;whiteSpace=wrap;html=1;fillColor=none;strokeColor=#000000;strokeWidth=3;" parent="1" vertex="1">
                    <mxGeometry x="745" y="1061" width="140" height="50" as="geometry"/>
                </mxCell>
                <mxCell id="149" value="&lt;b&gt;&lt;font style=&quot;font-size: 19px;&quot; color=&quot;#000000&quot;&gt;REG E_in&lt;/font&gt;&lt;span style=&quot;color: rgba(0, 0, 0, 0); font-family: monospace; font-size: 0px; text-align: start;&quot;&gt;%3E%3Croot%3E%3CmxCell%20id%3D%220%22%2F%3E%3CmxCell%20id%3D%221%22%20parent%3D%220%22%2F%3E%3CmxCell%20id%3D%222%22%20value%3D%22%26lt%3Bfont%20style%3D%26quot%3Bfont-size%3A%2019px%3B%26quot%3B%20color%3D%26quot%3B%23000000%26quot%3B%26gt%3BMultiplier%201%26lt%3B%2Ffont%26gt%3B%22%20style%3D%22rounded%3D1%3BwhiteSpace%3Dwrap%3Bhtml%3D1%3BfillColor%3Dnone%3BstrokeColor%3D%23000000%3BstrokeWidth%3D3%3B%22%20vertex%3D%221%22%20parent%3D%221%22%3E%3CmxGeometry%20x%3D%22220%22%20y%3D%22680%22%20width%3D%22140%22%20height%3D%2250%22%20as%3D%22geometry%22%2F%3E%3C%2FmxCell%3E%3C%2Froot%3E%3C%2FmxGraphModel%3E&lt;/span&gt;&lt;/b&gt;" style="rounded=0;whiteSpace=wrap;html=1;fillColor=none;strokeColor=#000000;strokeWidth=3;" parent="1" vertex="1">
                    <mxGeometry x="556" y="1061" width="140" height="50" as="geometry"/>
                </mxCell>
                <mxCell id="151" value="&lt;b&gt;&lt;font style=&quot;font-size: 19px;&quot; color=&quot;#000000&quot;&gt;REG F_in&lt;/font&gt;&lt;span style=&quot;color: rgba(0, 0, 0, 0); font-family: monospace; font-size: 0px; text-align: start;&quot;&gt;%3E%3Croot%3E%3CmxCell%20id%3D%220%22%2F%3E%3CmxCell%20id%3D%221%22%20parent%3D%220%22%2F%3E%3CmxCell%20id%3D%222%22%20value%3D%22%26lt%3Bfont%20style%3D%26quot%3Bfont-size%3A%2019px%3B%26quot%3B%20color%3D%26quot%3B%23000000%26quot%3B%26gt%3BMultiplier%201%26lt%3B%2Ffont%26gt%3B%22%20style%3D%22rounded%3D1%3BwhiteSpace%3Dwrap%3Bhtml%3D1%3BfillColor%3Dnone%3BstrokeColor%3D%23000000%3BstrokeWidth%3D3%3B%22%20vertex%3D%221%22%20parent%3D%221%22%3E%3CmxGeometry%20x%3D%22220%22%20y%3D%22680%22%20width%3D%22140%22%20height%3D%2250%22%20as%3D%22geometry%22%2F%3E%3C%2FmxCell%3E%3C%2Froot%3E%3C%2FmxGraphModel%3E&lt;/span&gt;&lt;/b&gt;" style="rounded=0;whiteSpace=wrap;html=1;fillColor=none;strokeColor=#000000;strokeWidth=3;" parent="1" vertex="1">
                    <mxGeometry x="416" y="1061" width="140" height="50" as="geometry"/>
                </mxCell>
                <mxCell id="152" value="&lt;div style=&quot;text-align: left;&quot;&gt;&lt;b style=&quot;background-color: initial;&quot;&gt;&lt;font style=&quot;font-size: 19px;&quot; color=&quot;#000000&quot;&gt;en&amp;nbsp; &amp;nbsp; &amp;nbsp; &amp;nbsp; &amp;nbsp;REG dataOut&lt;/font&gt;&lt;span style=&quot;color: rgba(0, 0, 0, 0); font-family: monospace; font-size: 0px; text-align: start;&quot;&gt;%3E%3Croot%3E%3CmxCell%20id%3D%220%22%2F%3E%3CmxCell%20id%3D%221%22%20parent%3D%220%22%2F%3E%3CmxCell%20id%3D%222%22%20value%3D%22%26lt%3Bfont%20style%3D%26quot%3Bfont-size%3A%2019px%3B%26quot%3B%20color%3D%26quot%3B%23000000%26quot%3B%26gt%3BMultiplier%201%26lt%3B%2Ffont%26gt%3B%22%20style%3D%22rounded%3D1%3BwhiteSpace%3Dwrap%3Bhtml%3D1%3BfillColor%3Dnone%3BstrokeColor%3D%23000000%3BstrokeWidth%3D3%3B%22%20vertex%3D%221%22%20parent%3D%221%22%3E%3CmxGeometry%20x%3D%22220%22%20y%3D%22680%22%20width%3D%22140%22%20height%3D%2250%22%20as%3D%22geometry%22%2F%3E%3C%2FmxCell%3E%3C%2Froot%3E%3C%2FmxGraphModel%3E&lt;/span&gt;&lt;/b&gt;&lt;/div&gt;" style="rounded=0;whiteSpace=wrap;html=1;fillColor=none;strokeColor=#000000;strokeWidth=3;" parent="1" vertex="1">
                    <mxGeometry x="725.5" y="303" width="206" height="50" as="geometry"/>
                </mxCell>
                <mxCell id="154" style="edgeStyle=none;html=1;exitX=0.5;exitY=0;exitDx=0;exitDy=0;entryX=0.641;entryY=1.042;entryDx=0;entryDy=0;entryPerimeter=0;strokeColor=#000000;strokeWidth=4;fontSize=23;fontColor=#000000;" parent="1" source="155" target="109" edge="1">
                    <mxGeometry relative="1" as="geometry"/>
                </mxCell>
                <mxCell id="155" value="&lt;b&gt;MUX &lt;br&gt;ALU_opB&lt;/b&gt;" style="shape=trapezoid;perimeter=trapezoidPerimeter;whiteSpace=wrap;html=1;fixedSize=1;rounded=0;strokeColor=#000000;strokeWidth=3;fontSize=19;fontColor=#000000;fillColor=none;rotation=0;direction=east;" parent="1" vertex="1">
                    <mxGeometry x="958" y="835" width="190" height="90" as="geometry"/>
                </mxCell>
                <mxCell id="156" value="&lt;font style=&quot;font-size: 42px;&quot; color=&quot;#000000&quot;&gt;Control&lt;/font&gt;" style="rounded=1;whiteSpace=wrap;html=1;fillColor=none;strokeColor=#000000;strokeWidth=3;" parent="1" vertex="1">
                    <mxGeometry x="-259" y="683" width="204" height="222" as="geometry"/>
                </mxCell>
                <mxCell id="157" value="" style="endArrow=classic;html=1;fontSize=18;strokeWidth=4;strokeColor=#000000;" parent="1" edge="1">
                    <mxGeometry width="50" height="50" relative="1" as="geometry">
                        <mxPoint x="-55" y="726" as="sourcePoint"/>
                        <mxPoint x="143" y="726" as="targetPoint"/>
                    </mxGeometry>
                </mxCell>
                <mxCell id="158" value="&lt;font style=&quot;font-size: 23px;&quot;&gt;&lt;b&gt;M1_sel[1:0]&lt;/b&gt;&lt;/font&gt;" style="edgeLabel;html=1;align=center;verticalAlign=middle;resizable=0;points=[];fontSize=18;rotation=0;fontColor=#000000;labelBackgroundColor=none;" parent="157" vertex="1" connectable="0">
                    <mxGeometry x="-0.1718" y="-9" relative="1" as="geometry">
                        <mxPoint x="1" y="-27" as="offset"/>
                    </mxGeometry>
                </mxCell>
                <mxCell id="159" value="" style="endArrow=classic;html=1;fontSize=18;strokeWidth=4;strokeColor=#000000;" parent="1" edge="1">
                    <mxGeometry width="50" height="50" relative="1" as="geometry">
                        <mxPoint x="-55" y="792.8899999999999" as="sourcePoint"/>
                        <mxPoint x="143.00000000000045" y="792.8899999999999" as="targetPoint"/>
                    </mxGeometry>
                </mxCell>
                <mxCell id="160" value="&lt;font style=&quot;font-size: 23px;&quot;&gt;&lt;b&gt;M2_sel[1:0]&lt;/b&gt;&lt;/font&gt;" style="edgeLabel;html=1;align=center;verticalAlign=middle;resizable=0;points=[];fontSize=18;rotation=0;fontColor=#000000;labelBackgroundColor=none;" parent="159" vertex="1" connectable="0">
                    <mxGeometry x="-0.1718" y="-9" relative="1" as="geometry">
                        <mxPoint x="4" y="-24" as="offset"/>
                    </mxGeometry>
                </mxCell>
                <mxCell id="161" value="" style="endArrow=classic;html=1;fontSize=18;strokeWidth=4;strokeColor=#000000;" parent="1" edge="1">
                    <mxGeometry width="50" height="50" relative="1" as="geometry">
                        <mxPoint x="-55" y="848" as="sourcePoint"/>
                        <mxPoint x="143.00000000000045" y="848" as="targetPoint"/>
                    </mxGeometry>
                </mxCell>
                <mxCell id="162" value="&lt;font style=&quot;font-size: 23px;&quot;&gt;&lt;b&gt;ALU_sel [2:0]&lt;/b&gt;&lt;/font&gt;" style="edgeLabel;html=1;align=center;verticalAlign=middle;resizable=0;points=[];fontSize=18;rotation=0;fontColor=#000000;labelBackgroundColor=none;" parent="161" vertex="1" connectable="0">
                    <mxGeometry x="-0.1718" y="-9" relative="1" as="geometry">
                        <mxPoint x="10" y="-24" as="offset"/>
                    </mxGeometry>
                </mxCell>
                <mxCell id="164" style="edgeStyle=none;html=1;entryX=0.75;entryY=0;entryDx=0;entryDy=0;strokeColor=#000000;strokeWidth=4;fontSize=23;fontColor=#000000;exitX=0.5;exitY=0;exitDx=0;exitDy=0;" parent="1" source="165" target="107" edge="1">
                    <mxGeometry relative="1" as="geometry"/>
                </mxCell>
                <mxCell id="165" value="&lt;font style=&quot;font-size: 21px;&quot;&gt;&lt;b&gt;&lt;br&gt;MUX &lt;br&gt;M1_opB&lt;/b&gt;&lt;/font&gt;" style="shape=trapezoid;perimeter=trapezoidPerimeter;whiteSpace=wrap;html=1;fixedSize=1;rounded=0;strokeColor=#000000;strokeWidth=3;fontSize=19;fontColor=#000000;fillColor=none;rotation=0;direction=west;" parent="1" vertex="1">
                    <mxGeometry x="1375.5" y="1326" width="209.5" height="94" as="geometry"/>
                </mxCell>
                <mxCell id="186" style="edgeStyle=none;html=1;strokeColor=#000000;strokeWidth=4;" parent="1" source="166" edge="1">
                    <mxGeometry relative="1" as="geometry">
                        <mxPoint x="483" y="1655" as="targetPoint"/>
                    </mxGeometry>
                </mxCell>
                <mxCell id="166" value="&lt;font style=&quot;font-size: 26px;&quot; color=&quot;#000000&quot;&gt;&lt;b&gt;Multiplier 2&lt;/b&gt;&lt;/font&gt;" style="rounded=1;whiteSpace=wrap;html=1;fillColor=none;strokeColor=#000000;strokeWidth=3;" parent="1" vertex="1">
                    <mxGeometry x="396" y="1513" width="174" height="84" as="geometry"/>
                </mxCell>
                <mxCell id="167" value="" style="endArrow=classic;html=1;fontSize=18;strokeWidth=4;strokeColor=#000000;" parent="1" edge="1">
                    <mxGeometry width="50" height="50" relative="1" as="geometry">
                        <mxPoint x="531" y="879" as="sourcePoint"/>
                        <mxPoint x="645.0000000000005" y="878.8899999999999" as="targetPoint"/>
                    </mxGeometry>
                </mxCell>
                <mxCell id="168" value="&lt;font style=&quot;font-size: 23px;&quot;&gt;&lt;b&gt;ALU_sel&lt;/b&gt;&lt;/font&gt;&lt;b style=&quot;font-size: 23px;&quot;&gt;[2:0]&lt;/b&gt;" style="edgeLabel;html=1;align=center;verticalAlign=middle;resizable=0;points=[];fontSize=18;rotation=0;fontColor=#000000;labelBackgroundColor=none;" parent="167" vertex="1" connectable="0">
                    <mxGeometry x="-0.1718" y="-9" relative="1" as="geometry">
                        <mxPoint x="-4" y="-31" as="offset"/>
                    </mxGeometry>
                </mxCell>
                <mxCell id="169" value="" style="endArrow=classic;html=1;fontSize=18;strokeWidth=4;strokeColor=#000000;" parent="1" edge="1">
                    <mxGeometry width="50" height="50" relative="1" as="geometry">
                        <mxPoint x="853" y="885.11" as="sourcePoint"/>
                        <mxPoint x="967.0000000000005" y="884.9999999999999" as="targetPoint"/>
                    </mxGeometry>
                </mxCell>
                <mxCell id="170" value="&lt;font style=&quot;font-size: 23px;&quot;&gt;&lt;b&gt;ALU_sel&lt;/b&gt;&lt;/font&gt;&lt;b style=&quot;font-size: 23px;&quot;&gt;[2:0]&lt;/b&gt;" style="edgeLabel;html=1;align=center;verticalAlign=middle;resizable=0;points=[];fontSize=18;rotation=0;fontColor=#000000;labelBackgroundColor=none;" parent="169" vertex="1" connectable="0">
                    <mxGeometry x="-0.1718" y="-9" relative="1" as="geometry">
                        <mxPoint x="-8" y="-33" as="offset"/>
                    </mxGeometry>
                </mxCell>
                <mxCell id="175" value="" style="endArrow=classic;html=1;fontSize=18;strokeWidth=4;strokeColor=#000000;" parent="1" edge="1">
                    <mxGeometry width="50" height="50" relative="1" as="geometry">
                        <mxPoint x="490" y="1383.1100000000006" as="sourcePoint"/>
                        <mxPoint x="396" y="1382.88" as="targetPoint"/>
                    </mxGeometry>
                </mxCell>
                <mxCell id="176" value="&lt;font style=&quot;font-size: 23px;&quot;&gt;&lt;b&gt;M2_sel[1:0]&lt;/b&gt;&lt;/font&gt;" style="edgeLabel;html=1;align=center;verticalAlign=middle;resizable=0;points=[];fontSize=18;rotation=0;fontColor=#000000;labelBackgroundColor=none;" parent="175" vertex="1" connectable="0">
                    <mxGeometry x="-0.1718" y="-9" relative="1" as="geometry">
                        <mxPoint x="17" y="-13" as="offset"/>
                    </mxGeometry>
                </mxCell>
                <mxCell id="181" value="&lt;font style=&quot;font-size: 21px;&quot;&gt;&lt;b&gt;MUX &lt;br&gt;Multiplier2_out&lt;/b&gt;&lt;/font&gt;" style="shape=trapezoid;perimeter=trapezoidPerimeter;whiteSpace=wrap;html=1;fixedSize=1;rounded=0;strokeColor=#000000;strokeWidth=3;fontSize=19;fontColor=#000000;fillColor=none;rotation=0;direction=west;" parent="1" vertex="1">
                    <mxGeometry x="367.5" y="1657" width="231" height="92" as="geometry"/>
                </mxCell>
                <mxCell id="182" value="&lt;font style=&quot;font-size: 21px;&quot;&gt;&lt;b&gt;MUX &lt;br&gt;Multiplier1_out&lt;/b&gt;&lt;/font&gt;" style="shape=trapezoid;perimeter=trapezoidPerimeter;whiteSpace=wrap;html=1;fixedSize=1;rounded=0;strokeColor=#000000;strokeWidth=3;fontSize=19;fontColor=#000000;fillColor=none;rotation=0;direction=west;" parent="1" vertex="1">
                    <mxGeometry x="1200" y="1657" width="234" height="92" as="geometry"/>
                </mxCell>
                <mxCell id="244" value="" style="endArrow=classic;html=1;fontSize=18;strokeWidth=4;strokeColor=#000000;" parent="1" edge="1">
                    <mxGeometry width="50" height="50" relative="1" as="geometry">
                        <mxPoint x="343" y="1269" as="sourcePoint"/>
                        <mxPoint x="343" y="1329" as="targetPoint"/>
                    </mxGeometry>
                </mxCell>
                <mxCell id="245" value="&lt;b style=&quot;&quot;&gt;&lt;font style=&quot;font-size: 20px;&quot;&gt;t3&lt;/font&gt;&lt;/b&gt;" style="edgeLabel;html=1;align=center;verticalAlign=middle;resizable=0;points=[];fontSize=18;rotation=0;fontColor=#000000;labelBackgroundColor=none;" parent="244" vertex="1" connectable="0">
                    <mxGeometry x="-0.1718" y="-9" relative="1" as="geometry">
                        <mxPoint x="7" y="-44" as="offset"/>
                    </mxGeometry>
                </mxCell>
                <mxCell id="246" value="" style="endArrow=classic;html=1;fontSize=18;strokeWidth=4;strokeColor=#000000;" parent="1" edge="1">
                    <mxGeometry width="50" height="50" relative="1" as="geometry">
                        <mxPoint x="399" y="1269" as="sourcePoint"/>
                        <mxPoint x="399" y="1329" as="targetPoint"/>
                    </mxGeometry>
                </mxCell>
                <mxCell id="247" value="&lt;b style=&quot;&quot;&gt;&lt;font style=&quot;font-size: 20px;&quot;&gt;E_in&lt;/font&gt;&lt;/b&gt;" style="edgeLabel;html=1;align=center;verticalAlign=middle;resizable=0;points=[];fontSize=18;rotation=0;fontColor=#000000;labelBackgroundColor=none;" parent="246" vertex="1" connectable="0">
                    <mxGeometry x="-0.1718" y="-9" relative="1" as="geometry">
                        <mxPoint x="7" y="-44" as="offset"/>
                    </mxGeometry>
                </mxCell>
                <mxCell id="250" value="" style="endArrow=classic;html=1;fontSize=18;strokeWidth=4;strokeColor=#000000;" parent="1" edge="1">
                    <mxGeometry width="50" height="50" relative="1" as="geometry">
                        <mxPoint x="643.5" y="980" as="sourcePoint"/>
                        <mxPoint x="643.5" y="925" as="targetPoint"/>
                    </mxGeometry>
                </mxCell>
                <mxCell id="251" value="&lt;b style=&quot;&quot;&gt;&lt;font style=&quot;font-size: 20px;&quot;&gt;C_in&lt;/font&gt;&lt;/b&gt;" style="edgeLabel;html=1;align=center;verticalAlign=middle;resizable=0;points=[];fontSize=18;rotation=0;fontColor=#000000;labelBackgroundColor=none;" parent="250" vertex="1" connectable="0">
                    <mxGeometry x="-0.1718" y="-9" relative="1" as="geometry">
                        <mxPoint x="-10" y="39" as="offset"/>
                    </mxGeometry>
                </mxCell>
                <mxCell id="252" value="" style="endArrow=classic;html=1;fontSize=18;strokeWidth=4;strokeColor=#000000;" parent="1" edge="1">
                    <mxGeometry width="50" height="50" relative="1" as="geometry">
                        <mxPoint x="700.96" y="980" as="sourcePoint"/>
                        <mxPoint x="700.96" y="925" as="targetPoint"/>
                    </mxGeometry>
                </mxCell>
                <mxCell id="253" value="&lt;b style=&quot;&quot;&gt;&lt;font style=&quot;font-size: 20px;&quot;&gt;t4&lt;/font&gt;&lt;/b&gt;" style="edgeLabel;html=1;align=center;verticalAlign=middle;resizable=0;points=[];fontSize=18;rotation=0;fontColor=#000000;labelBackgroundColor=none;" parent="252" vertex="1" connectable="0">
                    <mxGeometry x="-0.1718" y="-9" relative="1" as="geometry">
                        <mxPoint x="-10" y="39" as="offset"/>
                    </mxGeometry>
                </mxCell>
                <mxCell id="254" value="" style="endArrow=classic;html=1;fontSize=18;strokeWidth=4;strokeColor=#000000;" parent="1" edge="1">
                    <mxGeometry width="50" height="50" relative="1" as="geometry">
                        <mxPoint x="756.5" y="980" as="sourcePoint"/>
                        <mxPoint x="756.5" y="925" as="targetPoint"/>
                    </mxGeometry>
                </mxCell>
                <mxCell id="255" value="&lt;b style=&quot;&quot;&gt;&lt;font style=&quot;font-size: 20px;&quot;&gt;A_in&lt;/font&gt;&lt;/b&gt;" style="edgeLabel;html=1;align=center;verticalAlign=middle;resizable=0;points=[];fontSize=18;rotation=0;fontColor=#000000;labelBackgroundColor=none;" parent="254" vertex="1" connectable="0">
                    <mxGeometry x="-0.1718" y="-9" relative="1" as="geometry">
                        <mxPoint x="-10" y="39" as="offset"/>
                    </mxGeometry>
                </mxCell>
                <mxCell id="256" value="" style="endArrow=classic;html=1;fontSize=18;strokeWidth=4;strokeColor=#000000;" parent="1" edge="1">
                    <mxGeometry width="50" height="50" relative="1" as="geometry">
                        <mxPoint x="813.96" y="980" as="sourcePoint"/>
                        <mxPoint x="813.96" y="925" as="targetPoint"/>
                    </mxGeometry>
                </mxCell>
                <mxCell id="257" value="&lt;b style=&quot;&quot;&gt;&lt;font style=&quot;font-size: 20px;&quot;&gt;t8&lt;/font&gt;&lt;/b&gt;" style="edgeLabel;html=1;align=center;verticalAlign=middle;resizable=0;points=[];fontSize=18;rotation=0;fontColor=#000000;labelBackgroundColor=none;" parent="256" vertex="1" connectable="0">
                    <mxGeometry x="-0.1718" y="-9" relative="1" as="geometry">
                        <mxPoint x="-10" y="39" as="offset"/>
                    </mxGeometry>
                </mxCell>
                <mxCell id="258" value="" style="endArrow=classic;html=1;fontSize=18;strokeWidth=4;strokeColor=#000000;" parent="1" edge="1">
                    <mxGeometry width="50" height="50" relative="1" as="geometry">
                        <mxPoint x="969" y="982" as="sourcePoint"/>
                        <mxPoint x="969" y="927" as="targetPoint"/>
                    </mxGeometry>
                </mxCell>
                <mxCell id="259" value="&lt;b style=&quot;&quot;&gt;&lt;font style=&quot;font-size: 20px;&quot;&gt;D_in&lt;/font&gt;&lt;/b&gt;" style="edgeLabel;html=1;align=center;verticalAlign=middle;resizable=0;points=[];fontSize=18;rotation=0;fontColor=#000000;labelBackgroundColor=none;" parent="258" vertex="1" connectable="0">
                    <mxGeometry x="-0.1718" y="-9" relative="1" as="geometry">
                        <mxPoint x="-10" y="39" as="offset"/>
                    </mxGeometry>
                </mxCell>
                <mxCell id="260" value="" style="endArrow=classic;html=1;fontSize=18;strokeWidth=4;strokeColor=#000000;" parent="1" edge="1">
                    <mxGeometry width="50" height="50" relative="1" as="geometry">
                        <mxPoint x="1026.46" y="982" as="sourcePoint"/>
                        <mxPoint x="1026.46" y="927" as="targetPoint"/>
                    </mxGeometry>
                </mxCell>
                <mxCell id="261" value="&lt;b style=&quot;&quot;&gt;&lt;font style=&quot;font-size: 20px;&quot;&gt;t6&lt;/font&gt;&lt;/b&gt;" style="edgeLabel;html=1;align=center;verticalAlign=middle;resizable=0;points=[];fontSize=18;rotation=0;fontColor=#000000;labelBackgroundColor=none;" parent="260" vertex="1" connectable="0">
                    <mxGeometry x="-0.1718" y="-9" relative="1" as="geometry">
                        <mxPoint x="-10" y="39" as="offset"/>
                    </mxGeometry>
                </mxCell>
                <mxCell id="262" value="" style="endArrow=classic;html=1;fontSize=18;strokeWidth=4;strokeColor=#000000;" parent="1" edge="1">
                    <mxGeometry width="50" height="50" relative="1" as="geometry">
                        <mxPoint x="1082" y="982" as="sourcePoint"/>
                        <mxPoint x="1082" y="927" as="targetPoint"/>
                    </mxGeometry>
                </mxCell>
                <mxCell id="263" value="&lt;b style=&quot;&quot;&gt;&lt;font style=&quot;font-size: 20px;&quot;&gt;t2&lt;/font&gt;&lt;/b&gt;" style="edgeLabel;html=1;align=center;verticalAlign=middle;resizable=0;points=[];fontSize=18;rotation=0;fontColor=#000000;labelBackgroundColor=none;" parent="262" vertex="1" connectable="0">
                    <mxGeometry x="-0.1718" y="-9" relative="1" as="geometry">
                        <mxPoint x="-10" y="39" as="offset"/>
                    </mxGeometry>
                </mxCell>
                <mxCell id="264" value="" style="endArrow=classic;html=1;fontSize=18;strokeWidth=4;strokeColor=#000000;" parent="1" edge="1">
                    <mxGeometry width="50" height="50" relative="1" as="geometry">
                        <mxPoint x="1139.46" y="982" as="sourcePoint"/>
                        <mxPoint x="1139.46" y="927" as="targetPoint"/>
                    </mxGeometry>
                </mxCell>
                <mxCell id="265" value="&lt;b style=&quot;&quot;&gt;&lt;font style=&quot;font-size: 20px;&quot;&gt;t9&lt;/font&gt;&lt;/b&gt;" style="edgeLabel;html=1;align=center;verticalAlign=middle;resizable=0;points=[];fontSize=18;rotation=0;fontColor=#000000;labelBackgroundColor=none;" parent="264" vertex="1" connectable="0">
                    <mxGeometry x="-0.1718" y="-9" relative="1" as="geometry">
                        <mxPoint x="-10" y="39" as="offset"/>
                    </mxGeometry>
                </mxCell>
                <mxCell id="268" value="" style="endArrow=classic;html=1;fontSize=18;strokeWidth=4;strokeColor=#000000;" parent="1" edge="1">
                    <mxGeometry width="50" height="50" relative="1" as="geometry">
                        <mxPoint x="659.54" y="1266" as="sourcePoint"/>
                        <mxPoint x="659.72" y="1326" as="targetPoint"/>
                    </mxGeometry>
                </mxCell>
                <mxCell id="269" value="&lt;b style=&quot;&quot;&gt;&lt;font style=&quot;font-size: 20px;&quot;&gt;t5&lt;/font&gt;&lt;/b&gt;" style="edgeLabel;html=1;align=center;verticalAlign=middle;resizable=0;points=[];fontSize=18;rotation=0;fontColor=#000000;labelBackgroundColor=none;" parent="268" vertex="1" connectable="0">
                    <mxGeometry x="-0.1718" y="-9" relative="1" as="geometry">
                        <mxPoint x="7" y="-44" as="offset"/>
                    </mxGeometry>
                </mxCell>
                <mxCell id="270" value="" style="endArrow=classic;html=1;fontSize=18;strokeWidth=4;strokeColor=#000000;" parent="1" edge="1">
                    <mxGeometry width="50" height="50" relative="1" as="geometry">
                        <mxPoint x="714.72" y="1266" as="sourcePoint"/>
                        <mxPoint x="714.72" y="1326" as="targetPoint"/>
                    </mxGeometry>
                </mxCell>
                <mxCell id="271" value="&lt;b style=&quot;&quot;&gt;&lt;font style=&quot;font-size: 20px;&quot;&gt;F_in&lt;/font&gt;&lt;/b&gt;" style="edgeLabel;html=1;align=center;verticalAlign=middle;resizable=0;points=[];fontSize=18;rotation=0;fontColor=#000000;labelBackgroundColor=none;" parent="270" vertex="1" connectable="0">
                    <mxGeometry x="-0.1718" y="-9" relative="1" as="geometry">
                        <mxPoint x="7" y="-44" as="offset"/>
                    </mxGeometry>
                </mxCell>
                <mxCell id="276" value="" style="endArrow=classic;html=1;fontSize=18;strokeWidth=4;strokeColor=#000000;" parent="1" edge="1">
                    <mxGeometry width="50" height="50" relative="1" as="geometry">
                        <mxPoint x="1166" y="1262" as="sourcePoint"/>
                        <mxPoint x="1166" y="1322" as="targetPoint"/>
                    </mxGeometry>
                </mxCell>
                <mxCell id="277" value="&lt;b style=&quot;&quot;&gt;&lt;font style=&quot;font-size: 20px;&quot;&gt;t4&lt;/font&gt;&lt;/b&gt;" style="edgeLabel;html=1;align=center;verticalAlign=middle;resizable=0;points=[];fontSize=18;rotation=0;fontColor=#000000;labelBackgroundColor=none;" parent="276" vertex="1" connectable="0">
                    <mxGeometry x="-0.1718" y="-9" relative="1" as="geometry">
                        <mxPoint x="7" y="-44" as="offset"/>
                    </mxGeometry>
                </mxCell>
                <mxCell id="278" value="" style="endArrow=classic;html=1;fontSize=18;strokeWidth=4;strokeColor=#000000;" parent="1" edge="1">
                    <mxGeometry width="50" height="50" relative="1" as="geometry">
                        <mxPoint x="1221" y="1262" as="sourcePoint"/>
                        <mxPoint x="1221" y="1322" as="targetPoint"/>
                    </mxGeometry>
                </mxCell>
                <mxCell id="279" value="&lt;b style=&quot;&quot;&gt;&lt;font style=&quot;font-size: 20px;&quot;&gt;A_in&lt;/font&gt;&lt;/b&gt;" style="edgeLabel;html=1;align=center;verticalAlign=middle;resizable=0;points=[];fontSize=18;rotation=0;fontColor=#000000;labelBackgroundColor=none;" parent="278" vertex="1" connectable="0">
                    <mxGeometry x="-0.1718" y="-9" relative="1" as="geometry">
                        <mxPoint x="7" y="-44" as="offset"/>
                    </mxGeometry>
                </mxCell>
                <mxCell id="284" value="" style="endArrow=classic;html=1;fontSize=18;strokeWidth=4;strokeColor=#000000;" parent="1" edge="1">
                    <mxGeometry width="50" height="50" relative="1" as="geometry">
                        <mxPoint x="1507.75" y="1264" as="sourcePoint"/>
                        <mxPoint x="1507.75" y="1324" as="targetPoint"/>
                    </mxGeometry>
                </mxCell>
                <mxCell id="285" value="&lt;b style=&quot;&quot;&gt;&lt;font style=&quot;font-size: 20px;&quot;&gt;B_in&lt;/font&gt;&lt;/b&gt;" style="edgeLabel;html=1;align=center;verticalAlign=middle;resizable=0;points=[];fontSize=18;rotation=0;fontColor=#000000;labelBackgroundColor=none;" parent="284" vertex="1" connectable="0">
                    <mxGeometry x="-0.1718" y="-9" relative="1" as="geometry">
                        <mxPoint x="7" y="-44" as="offset"/>
                    </mxGeometry>
                </mxCell>
                <mxCell id="286" value="" style="endArrow=classic;html=1;fontSize=18;strokeWidth=4;strokeColor=#000000;" parent="1" edge="1">
                    <mxGeometry width="50" height="50" relative="1" as="geometry">
                        <mxPoint x="1564.75" y="1264" as="sourcePoint"/>
                        <mxPoint x="1564.75" y="1324" as="targetPoint"/>
                    </mxGeometry>
                </mxCell>
                <mxCell id="287" value="&lt;b style=&quot;&quot;&gt;&lt;font style=&quot;font-size: 20px;&quot;&gt;B_in&lt;/font&gt;&lt;/b&gt;" style="edgeLabel;html=1;align=center;verticalAlign=middle;resizable=0;points=[];fontSize=18;rotation=0;fontColor=#000000;labelBackgroundColor=none;" parent="286" vertex="1" connectable="0">
                    <mxGeometry x="-0.1718" y="-9" relative="1" as="geometry">
                        <mxPoint x="7" y="-44" as="offset"/>
                    </mxGeometry>
                </mxCell>
                <mxCell id="291" value="&lt;font style=&quot;font-size: 21px;&quot;&gt;&lt;b&gt;MUX &lt;br&gt;ALU_out&lt;br&gt;&lt;/b&gt;&lt;/font&gt;" style="shape=trapezoid;perimeter=trapezoidPerimeter;whiteSpace=wrap;html=1;fixedSize=1;rounded=0;strokeColor=#000000;strokeWidth=3;fontSize=19;fontColor=#000000;fillColor=none;rotation=0;direction=east;" parent="1" vertex="1">
                    <mxGeometry x="787" y="506" width="210" height="92" as="geometry"/>
                </mxCell>
                <mxCell id="293" value="" style="endArrow=classic;html=1;fontSize=18;strokeWidth=4;strokeColor=#000000;" parent="1" edge="1">
                    <mxGeometry width="50" height="50" relative="1" as="geometry">
                        <mxPoint x="232" y="1267" as="sourcePoint"/>
                        <mxPoint x="232" y="1327" as="targetPoint"/>
                    </mxGeometry>
                </mxCell>
                <mxCell id="294" value="&lt;b style=&quot;&quot;&gt;&lt;font color=&quot;#ff0000&quot; style=&quot;font-size: 20px;&quot;&gt;0&lt;/font&gt;&lt;/b&gt;" style="edgeLabel;html=1;align=center;verticalAlign=middle;resizable=0;points=[];fontSize=18;rotation=0;fontColor=#000000;labelBackgroundColor=none;" parent="293" vertex="1" connectable="0">
                    <mxGeometry x="-0.1718" y="-9" relative="1" as="geometry">
                        <mxPoint x="7" y="-44" as="offset"/>
                    </mxGeometry>
                </mxCell>
                <mxCell id="295" value="" style="endArrow=classic;html=1;fontSize=18;strokeWidth=4;strokeColor=#000000;" parent="1" edge="1">
                    <mxGeometry width="50" height="50" relative="1" as="geometry">
                        <mxPoint x="286" y="1269" as="sourcePoint"/>
                        <mxPoint x="286" y="1329" as="targetPoint"/>
                    </mxGeometry>
                </mxCell>
                <mxCell id="296" value="&lt;b style=&quot;&quot;&gt;&lt;font color=&quot;#ff0000&quot; style=&quot;font-size: 20px;&quot;&gt;0&lt;/font&gt;&lt;/b&gt;" style="edgeLabel;html=1;align=center;verticalAlign=middle;resizable=0;points=[];fontSize=18;rotation=0;fontColor=#000000;labelBackgroundColor=none;" parent="295" vertex="1" connectable="0">
                    <mxGeometry x="-0.1718" y="-9" relative="1" as="geometry">
                        <mxPoint x="7" y="-44" as="offset"/>
                    </mxGeometry>
                </mxCell>
                <mxCell id="297" value="" style="endArrow=classic;html=1;fontSize=18;strokeWidth=4;strokeColor=#000000;" parent="1" edge="1">
                    <mxGeometry width="50" height="50" relative="1" as="geometry">
                        <mxPoint x="549" y="1264" as="sourcePoint"/>
                        <mxPoint x="549" y="1324" as="targetPoint"/>
                    </mxGeometry>
                </mxCell>
                <mxCell id="298" value="&lt;b style=&quot;&quot;&gt;&lt;font color=&quot;#ff0000&quot; style=&quot;font-size: 20px;&quot;&gt;0&lt;/font&gt;&lt;/b&gt;" style="edgeLabel;html=1;align=center;verticalAlign=middle;resizable=0;points=[];fontSize=18;rotation=0;fontColor=#000000;labelBackgroundColor=none;" parent="297" vertex="1" connectable="0">
                    <mxGeometry x="-0.1718" y="-9" relative="1" as="geometry">
                        <mxPoint x="7" y="-44" as="offset"/>
                    </mxGeometry>
                </mxCell>
                <mxCell id="299" value="" style="endArrow=classic;html=1;fontSize=18;strokeWidth=4;strokeColor=#000000;" parent="1" edge="1">
                    <mxGeometry width="50" height="50" relative="1" as="geometry">
                        <mxPoint x="603.0000000000002" y="1266" as="sourcePoint"/>
                        <mxPoint x="603.0000000000002" y="1326" as="targetPoint"/>
                    </mxGeometry>
                </mxCell>
                <mxCell id="300" value="&lt;b style=&quot;&quot;&gt;&lt;font color=&quot;#ff0000&quot; style=&quot;font-size: 20px;&quot;&gt;0&lt;/font&gt;&lt;/b&gt;" style="edgeLabel;html=1;align=center;verticalAlign=middle;resizable=0;points=[];fontSize=18;rotation=0;fontColor=#000000;labelBackgroundColor=none;" parent="299" vertex="1" connectable="0">
                    <mxGeometry x="-0.1718" y="-9" relative="1" as="geometry">
                        <mxPoint x="7" y="-44" as="offset"/>
                    </mxGeometry>
                </mxCell>
                <mxCell id="301" value="" style="endArrow=classic;html=1;fontSize=18;strokeWidth=4;strokeColor=#000000;" parent="1" edge="1">
                    <mxGeometry width="50" height="50" relative="1" as="geometry">
                        <mxPoint x="1055" y="1261" as="sourcePoint"/>
                        <mxPoint x="1055" y="1321" as="targetPoint"/>
                    </mxGeometry>
                </mxCell>
                <mxCell id="302" value="&lt;b style=&quot;&quot;&gt;&lt;font color=&quot;#ff0000&quot; style=&quot;font-size: 20px;&quot;&gt;0&lt;/font&gt;&lt;/b&gt;" style="edgeLabel;html=1;align=center;verticalAlign=middle;resizable=0;points=[];fontSize=18;rotation=0;fontColor=#000000;labelBackgroundColor=none;" parent="301" vertex="1" connectable="0">
                    <mxGeometry x="-0.1718" y="-9" relative="1" as="geometry">
                        <mxPoint x="7" y="-44" as="offset"/>
                    </mxGeometry>
                </mxCell>
                <mxCell id="303" value="" style="endArrow=classic;html=1;fontSize=18;strokeWidth=4;strokeColor=#000000;" parent="1" edge="1">
                    <mxGeometry width="50" height="50" relative="1" as="geometry">
                        <mxPoint x="1109.0000000000002" y="1263" as="sourcePoint"/>
                        <mxPoint x="1109.0000000000002" y="1323" as="targetPoint"/>
                    </mxGeometry>
                </mxCell>
                <mxCell id="304" value="&lt;b style=&quot;&quot;&gt;&lt;font style=&quot;font-size: 20px;&quot;&gt;t1&lt;/font&gt;&lt;/b&gt;" style="edgeLabel;html=1;align=center;verticalAlign=middle;resizable=0;points=[];fontSize=18;rotation=0;fontColor=#000000;labelBackgroundColor=none;" parent="303" vertex="1" connectable="0">
                    <mxGeometry x="-0.1718" y="-9" relative="1" as="geometry">
                        <mxPoint x="7" y="-44" as="offset"/>
                    </mxGeometry>
                </mxCell>
                <mxCell id="305" value="" style="endArrow=classic;html=1;fontSize=18;strokeWidth=4;strokeColor=#000000;" parent="1" edge="1">
                    <mxGeometry width="50" height="50" relative="1" as="geometry">
                        <mxPoint x="1395.75" y="1261" as="sourcePoint"/>
                        <mxPoint x="1395.75" y="1321" as="targetPoint"/>
                    </mxGeometry>
                </mxCell>
                <mxCell id="306" value="&lt;b style=&quot;&quot;&gt;&lt;font color=&quot;#ff0000&quot; style=&quot;font-size: 20px;&quot;&gt;0&lt;/font&gt;&lt;/b&gt;" style="edgeLabel;html=1;align=center;verticalAlign=middle;resizable=0;points=[];fontSize=18;rotation=0;fontColor=#000000;labelBackgroundColor=none;" parent="305" vertex="1" connectable="0">
                    <mxGeometry x="-0.1718" y="-9" relative="1" as="geometry">
                        <mxPoint x="7" y="-44" as="offset"/>
                    </mxGeometry>
                </mxCell>
                <mxCell id="307" value="" style="endArrow=classic;html=1;fontSize=18;strokeWidth=4;strokeColor=#000000;" parent="1" edge="1">
                    <mxGeometry width="50" height="50" relative="1" as="geometry">
                        <mxPoint x="1449.7500000000002" y="1263" as="sourcePoint"/>
                        <mxPoint x="1449.7500000000002" y="1323" as="targetPoint"/>
                    </mxGeometry>
                </mxCell>
                <mxCell id="308" value="&lt;b style=&quot;&quot;&gt;&lt;font style=&quot;font-size: 20px;&quot;&gt;t7&lt;/font&gt;&lt;/b&gt;" style="edgeLabel;html=1;align=center;verticalAlign=middle;resizable=0;points=[];fontSize=18;rotation=0;fontColor=#000000;labelBackgroundColor=none;" parent="307" vertex="1" connectable="0">
                    <mxGeometry x="-0.1718" y="-9" relative="1" as="geometry">
                        <mxPoint x="7" y="-44" as="offset"/>
                    </mxGeometry>
                </mxCell>
                <mxCell id="309" value="" style="endArrow=classic;html=1;fontSize=18;strokeWidth=4;strokeColor=#000000;" parent="1" edge="1">
                    <mxGeometry width="50" height="50" relative="1" as="geometry">
                        <mxPoint x="507.53999999999996" y="1754" as="sourcePoint"/>
                        <mxPoint x="507.72000000000025" y="1814" as="targetPoint"/>
                    </mxGeometry>
                </mxCell>
                <mxCell id="310" value="&lt;b style=&quot;&quot;&gt;&lt;font style=&quot;font-size: 20px;&quot;&gt;t9&lt;/font&gt;&lt;/b&gt;" style="edgeLabel;html=1;align=center;verticalAlign=middle;resizable=0;points=[];fontSize=18;rotation=0;fontColor=#000000;labelBackgroundColor=none;" parent="309" vertex="1" connectable="0">
                    <mxGeometry x="-0.1718" y="-9" relative="1" as="geometry">
                        <mxPoint x="7" y="54" as="offset"/>
                    </mxGeometry>
                </mxCell>
                <mxCell id="311" value="" style="endArrow=classic;html=1;fontSize=18;strokeWidth=4;strokeColor=#000000;" parent="1" edge="1">
                    <mxGeometry width="50" height="50" relative="1" as="geometry">
                        <mxPoint x="562.7200000000003" y="1754" as="sourcePoint"/>
                        <mxPoint x="562.7200000000003" y="1814" as="targetPoint"/>
                    </mxGeometry>
                </mxCell>
                <mxCell id="312" value="&lt;b style=&quot;&quot;&gt;&lt;font style=&quot;font-size: 20px;&quot;&gt;t2&lt;/font&gt;&lt;/b&gt;" style="edgeLabel;html=1;align=center;verticalAlign=middle;resizable=0;points=[];fontSize=18;rotation=0;fontColor=#000000;labelBackgroundColor=none;" parent="311" vertex="1" connectable="0">
                    <mxGeometry x="-0.1718" y="-9" relative="1" as="geometry">
                        <mxPoint x="7" y="52" as="offset"/>
                    </mxGeometry>
                </mxCell>
                <mxCell id="313" value="" style="endArrow=classic;html=1;fontSize=18;strokeWidth=4;strokeColor=#000000;dashed=1;" parent="1" edge="1">
                    <mxGeometry width="50" height="50" relative="1" as="geometry">
                        <mxPoint x="397" y="1752" as="sourcePoint"/>
                        <mxPoint x="397" y="1812" as="targetPoint"/>
                    </mxGeometry>
                </mxCell>
                <mxCell id="314" value="&lt;b style=&quot;&quot;&gt;&lt;font color=&quot;#ff0000&quot; style=&quot;font-size: 20px;&quot;&gt;null&lt;/font&gt;&lt;/b&gt;" style="edgeLabel;html=1;align=center;verticalAlign=middle;resizable=0;points=[];fontSize=18;rotation=0;fontColor=#000000;labelBackgroundColor=none;" parent="313" vertex="1" connectable="0">
                    <mxGeometry x="-0.1718" y="-9" relative="1" as="geometry">
                        <mxPoint x="5" y="59" as="offset"/>
                    </mxGeometry>
                </mxCell>
                <mxCell id="315" value="" style="endArrow=classic;html=1;fontSize=18;strokeWidth=4;strokeColor=#000000;dashed=1;" parent="1" edge="1">
                    <mxGeometry width="50" height="50" relative="1" as="geometry">
                        <mxPoint x="451" y="1754" as="sourcePoint"/>
                        <mxPoint x="451" y="1814" as="targetPoint"/>
                    </mxGeometry>
                </mxCell>
                <mxCell id="316" value="&lt;b style=&quot;&quot;&gt;&lt;font color=&quot;#ff0000&quot; style=&quot;font-size: 20px;&quot;&gt;null&lt;/font&gt;&lt;/b&gt;" style="edgeLabel;html=1;align=center;verticalAlign=middle;resizable=0;points=[];fontSize=18;rotation=0;fontColor=#000000;labelBackgroundColor=none;" parent="315" vertex="1" connectable="0">
                    <mxGeometry x="-0.1718" y="-9" relative="1" as="geometry">
                        <mxPoint x="7" y="58" as="offset"/>
                    </mxGeometry>
                </mxCell>
                <mxCell id="317" value="" style="endArrow=classic;html=1;fontSize=18;strokeWidth=4;strokeColor=#000000;" parent="1" edge="1">
                    <mxGeometry width="50" height="50" relative="1" as="geometry">
                        <mxPoint x="1343.77" y="1753" as="sourcePoint"/>
                        <mxPoint x="1343.9500000000003" y="1813" as="targetPoint"/>
                    </mxGeometry>
                </mxCell>
                <mxCell id="318" value="&lt;b style=&quot;&quot;&gt;&lt;font style=&quot;font-size: 20px;&quot;&gt;t5&lt;/font&gt;&lt;/b&gt;" style="edgeLabel;html=1;align=center;verticalAlign=middle;resizable=0;points=[];fontSize=18;rotation=0;fontColor=#000000;labelBackgroundColor=none;" parent="317" vertex="1" connectable="0">
                    <mxGeometry x="-0.1718" y="-9" relative="1" as="geometry">
                        <mxPoint x="7" y="54" as="offset"/>
                    </mxGeometry>
                </mxCell>
                <mxCell id="319" value="" style="endArrow=classic;html=1;fontSize=18;strokeWidth=4;strokeColor=#000000;" parent="1" edge="1">
                    <mxGeometry width="50" height="50" relative="1" as="geometry">
                        <mxPoint x="1398.9500000000003" y="1753" as="sourcePoint"/>
                        <mxPoint x="1398.9500000000003" y="1813" as="targetPoint"/>
                    </mxGeometry>
                </mxCell>
                <mxCell id="320" value="&lt;b style=&quot;&quot;&gt;&lt;font style=&quot;font-size: 20px;&quot;&gt;t1&lt;/font&gt;&lt;/b&gt;" style="edgeLabel;html=1;align=center;verticalAlign=middle;resizable=0;points=[];fontSize=18;rotation=0;fontColor=#000000;labelBackgroundColor=none;" parent="319" vertex="1" connectable="0">
                    <mxGeometry x="-0.1718" y="-9" relative="1" as="geometry">
                        <mxPoint x="7" y="52" as="offset"/>
                    </mxGeometry>
                </mxCell>
                <mxCell id="321" value="" style="endArrow=classic;html=1;fontSize=18;strokeWidth=4;strokeColor=#000000;dashed=1;" parent="1" edge="1">
                    <mxGeometry width="50" height="50" relative="1" as="geometry">
                        <mxPoint x="1244" y="1751" as="sourcePoint"/>
                        <mxPoint x="1244" y="1811" as="targetPoint"/>
                    </mxGeometry>
                </mxCell>
                <mxCell id="322" value="&lt;b style=&quot;&quot;&gt;&lt;font color=&quot;#ff0000&quot; style=&quot;font-size: 20px;&quot;&gt;null&lt;/font&gt;&lt;/b&gt;" style="edgeLabel;html=1;align=center;verticalAlign=middle;resizable=0;points=[];fontSize=18;rotation=0;fontColor=#000000;labelBackgroundColor=none;" parent="321" vertex="1" connectable="0">
                    <mxGeometry x="-0.1718" y="-9" relative="1" as="geometry">
                        <mxPoint x="5" y="59" as="offset"/>
                    </mxGeometry>
                </mxCell>
                <mxCell id="325" value="" style="endArrow=classic;html=1;fontSize=18;strokeWidth=4;strokeColor=#000000;" parent="1" edge="1">
                    <mxGeometry width="50" height="50" relative="1" as="geometry">
                        <mxPoint x="1294" y="1752" as="sourcePoint"/>
                        <mxPoint x="1294.1800000000003" y="1812" as="targetPoint"/>
                    </mxGeometry>
                </mxCell>
                <mxCell id="326" value="&lt;b style=&quot;&quot;&gt;&lt;font style=&quot;font-size: 20px;&quot;&gt;t8&lt;/font&gt;&lt;/b&gt;" style="edgeLabel;html=1;align=center;verticalAlign=middle;resizable=0;points=[];fontSize=18;rotation=0;fontColor=#000000;labelBackgroundColor=none;" parent="325" vertex="1" connectable="0">
                    <mxGeometry x="-0.1718" y="-9" relative="1" as="geometry">
                        <mxPoint x="7" y="54" as="offset"/>
                    </mxGeometry>
                </mxCell>
                <mxCell id="331" value="" style="endArrow=classic;html=1;fontSize=18;strokeWidth=4;strokeColor=#000000;" parent="1" edge="1">
                    <mxGeometry width="50" height="50" relative="1" as="geometry">
                        <mxPoint x="870.6700000000001" y="501.86" as="sourcePoint"/>
                        <mxPoint x="870.6700000000001" y="446.86" as="targetPoint"/>
                    </mxGeometry>
                </mxCell>
                <mxCell id="332" value="&lt;b style=&quot;&quot;&gt;&lt;font style=&quot;font-size: 20px;&quot;&gt;t3&lt;/font&gt;&lt;/b&gt;" style="edgeLabel;html=1;align=center;verticalAlign=middle;resizable=0;points=[];fontSize=18;rotation=0;fontColor=#000000;labelBackgroundColor=none;" parent="331" vertex="1" connectable="0">
                    <mxGeometry x="-0.1718" y="-9" relative="1" as="geometry">
                        <mxPoint x="-9" y="-48" as="offset"/>
                    </mxGeometry>
                </mxCell>
                <mxCell id="335" value="" style="endArrow=classic;html=1;fontSize=18;strokeWidth=4;strokeColor=#000000;" parent="1" edge="1">
                    <mxGeometry width="50" height="50" relative="1" as="geometry">
                        <mxPoint x="919" y="501.0000000000001" as="sourcePoint"/>
                        <mxPoint x="919" y="446.0000000000001" as="targetPoint"/>
                    </mxGeometry>
                </mxCell>
                <mxCell id="336" value="&lt;b style=&quot;&quot;&gt;&lt;font style=&quot;font-size: 20px;&quot;&gt;t7&lt;/font&gt;&lt;/b&gt;" style="edgeLabel;html=1;align=center;verticalAlign=middle;resizable=0;points=[];fontSize=18;rotation=0;fontColor=#000000;labelBackgroundColor=none;" parent="335" vertex="1" connectable="0">
                    <mxGeometry x="-0.1718" y="-9" relative="1" as="geometry">
                        <mxPoint x="-10" y="-48" as="offset"/>
                    </mxGeometry>
                </mxCell>
                <mxCell id="337" value="" style="endArrow=classic;html=1;fontSize=18;strokeWidth=4;strokeColor=#000000;" parent="1" edge="1">
                    <mxGeometry width="50" height="50" relative="1" as="geometry">
                        <mxPoint x="963.6700000000001" y="502.0000000000001" as="sourcePoint"/>
                        <mxPoint x="963.6700000000001" y="447.0000000000001" as="targetPoint"/>
                    </mxGeometry>
                </mxCell>
                <mxCell id="338" value="&lt;b style=&quot;&quot;&gt;&lt;font style=&quot;font-size: 20px;&quot;&gt;t4&lt;/font&gt;&lt;/b&gt;" style="edgeLabel;html=1;align=center;verticalAlign=middle;resizable=0;points=[];fontSize=18;rotation=0;fontColor=#000000;labelBackgroundColor=none;" parent="337" vertex="1" connectable="0">
                    <mxGeometry x="-0.1718" y="-9" relative="1" as="geometry">
                        <mxPoint x="-9" y="-48" as="offset"/>
                    </mxGeometry>
                </mxCell>
                <mxCell id="341" value="" style="endArrow=classic;html=1;fontSize=18;strokeWidth=4;strokeColor=#000000;" parent="1" edge="1">
                    <mxGeometry width="50" height="50" relative="1" as="geometry">
                        <mxPoint x="683" y="551" as="sourcePoint"/>
                        <mxPoint x="797.0000000000005" y="550.8899999999999" as="targetPoint"/>
                    </mxGeometry>
                </mxCell>
                <mxCell id="342" value="&lt;font style=&quot;font-size: 23px;&quot;&gt;&lt;b&gt;ALU_sel&lt;/b&gt;&lt;/font&gt;&lt;b style=&quot;font-size: 23px;&quot;&gt;[2:0]&lt;/b&gt;" style="edgeLabel;html=1;align=center;verticalAlign=middle;resizable=0;points=[];fontSize=18;rotation=0;fontColor=#000000;labelBackgroundColor=none;" parent="341" vertex="1" connectable="0">
                    <mxGeometry x="-0.1718" y="-9" relative="1" as="geometry">
                        <mxPoint x="-13" y="-33" as="offset"/>
                    </mxGeometry>
                </mxCell>
                <mxCell id="345" value="" style="endArrow=classic;html=1;fontSize=18;strokeWidth=4;strokeColor=#000000;" parent="1" edge="1">
                    <mxGeometry width="50" height="50" relative="1" as="geometry">
                        <mxPoint x="818" y="1382.230000000001" as="sourcePoint"/>
                        <mxPoint x="724" y="1382" as="targetPoint"/>
                    </mxGeometry>
                </mxCell>
                <mxCell id="346" value="&lt;font style=&quot;font-size: 23px;&quot;&gt;&lt;b&gt;M2_sel[1:0]&lt;/b&gt;&lt;/font&gt;" style="edgeLabel;html=1;align=center;verticalAlign=middle;resizable=0;points=[];fontSize=18;rotation=0;fontColor=#000000;labelBackgroundColor=none;" parent="345" vertex="1" connectable="0">
                    <mxGeometry x="-0.1718" y="-9" relative="1" as="geometry">
                        <mxPoint x="17" y="-13" as="offset"/>
                    </mxGeometry>
                </mxCell>
                <mxCell id="347" value="" style="endArrow=classic;html=1;fontSize=18;strokeWidth=4;strokeColor=#000000;" parent="1" edge="1">
                    <mxGeometry width="50" height="50" relative="1" as="geometry">
                        <mxPoint x="1324" y="1383.230000000001" as="sourcePoint"/>
                        <mxPoint x="1230" y="1383" as="targetPoint"/>
                    </mxGeometry>
                </mxCell>
                <mxCell id="348" value="&lt;font style=&quot;font-size: 23px;&quot;&gt;&lt;b&gt;M1_sel[1:0]&lt;/b&gt;&lt;/font&gt;" style="edgeLabel;html=1;align=center;verticalAlign=middle;resizable=0;points=[];fontSize=18;rotation=0;fontColor=#000000;labelBackgroundColor=none;" parent="347" vertex="1" connectable="0">
                    <mxGeometry x="-0.1718" y="-9" relative="1" as="geometry">
                        <mxPoint x="17" y="-13" as="offset"/>
                    </mxGeometry>
                </mxCell>
                <mxCell id="349" value="" style="endArrow=classic;html=1;fontSize=18;strokeWidth=4;strokeColor=#000000;" parent="1" edge="1">
                    <mxGeometry width="50" height="50" relative="1" as="geometry">
                        <mxPoint x="1671" y="1379.230000000001" as="sourcePoint"/>
                        <mxPoint x="1577.0000000000005" y="1379" as="targetPoint"/>
                    </mxGeometry>
                </mxCell>
                <mxCell id="350" value="&lt;font style=&quot;font-size: 23px;&quot;&gt;&lt;b&gt;M1_sel[1:0]&lt;/b&gt;&lt;/font&gt;" style="edgeLabel;html=1;align=center;verticalAlign=middle;resizable=0;points=[];fontSize=18;rotation=0;fontColor=#000000;labelBackgroundColor=none;" parent="349" vertex="1" connectable="0">
                    <mxGeometry x="-0.1718" y="-9" relative="1" as="geometry">
                        <mxPoint x="17" y="-13" as="offset"/>
                    </mxGeometry>
                </mxCell>
                <mxCell id="351" value="" style="endArrow=classic;html=1;fontSize=18;strokeWidth=4;strokeColor=#000000;" parent="1" edge="1">
                    <mxGeometry width="50" height="50" relative="1" as="geometry">
                        <mxPoint x="1520" y="1710.230000000001" as="sourcePoint"/>
                        <mxPoint x="1426.0000000000005" y="1710" as="targetPoint"/>
                    </mxGeometry>
                </mxCell>
                <mxCell id="352" value="&lt;font style=&quot;font-size: 23px;&quot;&gt;&lt;b&gt;M1_sel[1:0]&lt;/b&gt;&lt;/font&gt;" style="edgeLabel;html=1;align=center;verticalAlign=middle;resizable=0;points=[];fontSize=18;rotation=0;fontColor=#000000;labelBackgroundColor=none;" parent="351" vertex="1" connectable="0">
                    <mxGeometry x="-0.1718" y="-9" relative="1" as="geometry">
                        <mxPoint x="17" y="-13" as="offset"/>
                    </mxGeometry>
                </mxCell>
                <mxCell id="353" value="" style="endArrow=classic;html=1;fontSize=18;strokeWidth=4;strokeColor=#000000;" parent="1" edge="1">
                    <mxGeometry width="50" height="50" relative="1" as="geometry">
                        <mxPoint x="684.5" y="1713.2300000000005" as="sourcePoint"/>
                        <mxPoint x="590.5" y="1713" as="targetPoint"/>
                    </mxGeometry>
                </mxCell>
                <mxCell id="354" value="&lt;font style=&quot;font-size: 23px;&quot;&gt;&lt;b&gt;M2_sel[1:0]&lt;/b&gt;&lt;/font&gt;" style="edgeLabel;html=1;align=center;verticalAlign=middle;resizable=0;points=[];fontSize=18;rotation=0;fontColor=#000000;labelBackgroundColor=none;" parent="353" vertex="1" connectable="0">
                    <mxGeometry x="-0.1718" y="-9" relative="1" as="geometry">
                        <mxPoint x="17" y="-13" as="offset"/>
                    </mxGeometry>
                </mxCell>
                <mxCell id="355" value="" style="endArrow=classic;html=1;fontSize=18;strokeWidth=4;strokeColor=#000000;entryX=0.5;entryY=1;entryDx=0;entryDy=0;" parent="1" target="152" edge="1">
                    <mxGeometry width="50" height="50" relative="1" as="geometry">
                        <mxPoint x="831.0000000000001" y="506.0000000000001" as="sourcePoint"/>
                        <mxPoint x="831.0000000000001" y="451.0000000000001" as="targetPoint"/>
                    </mxGeometry>
                </mxCell>
                <mxCell id="356" value="&lt;b style=&quot;&quot;&gt;&lt;font style=&quot;font-size: 20px;&quot;&gt;dataOUT&lt;/font&gt;&lt;/b&gt;" style="edgeLabel;html=1;align=center;verticalAlign=middle;resizable=0;points=[];fontSize=18;rotation=0;fontColor=#000000;labelBackgroundColor=none;" parent="355" vertex="1" connectable="0">
                    <mxGeometry x="-0.1718" y="-9" relative="1" as="geometry">
                        <mxPoint x="-59" y="-26" as="offset"/>
                    </mxGeometry>
                </mxCell>
                <mxCell id="358" value="&lt;font style=&quot;font-size: 48px;&quot;&gt;Datapath&lt;/font&gt;" style="text;html=1;strokeColor=none;fillColor=none;align=center;verticalAlign=middle;whiteSpace=wrap;rounded=0;strokeWidth=3;fontSize=20;fontColor=#000000;" parent="1" vertex="1">
                    <mxGeometry x="267" y="243" width="60" height="30" as="geometry"/>
                </mxCell>
                <mxCell id="360" value="" style="endArrow=classic;html=1;fontSize=18;strokeWidth=4;strokeColor=#000000;" parent="1" edge="1">
                    <mxGeometry width="50" height="50" relative="1" as="geometry">
                        <mxPoint x="610" y="327.11" as="sourcePoint"/>
                        <mxPoint x="724.0000000000005" y="326.9999999999999" as="targetPoint"/>
                    </mxGeometry>
                </mxCell>
                <mxCell id="361" value="&lt;span style=&quot;font-size: 23px;&quot;&gt;&lt;b&gt;we&lt;/b&gt;&lt;/span&gt;" style="edgeLabel;html=1;align=center;verticalAlign=middle;resizable=0;points=[];fontSize=18;rotation=0;fontColor=#000000;labelBackgroundColor=none;" parent="360" vertex="1" connectable="0">
                    <mxGeometry x="-0.1718" y="-9" relative="1" as="geometry">
                        <mxPoint x="-13" y="-33" as="offset"/>
                    </mxGeometry>
                </mxCell>
                <mxCell id="364" value="&lt;font style=&quot;font-size: 20px;&quot; color=&quot;#000000&quot;&gt;Write Enable Comparator&lt;/font&gt;" style="rounded=0;whiteSpace=wrap;html=1;fillColor=none;strokeColor=#000000;strokeWidth=3;" parent="1" vertex="1">
                    <mxGeometry x="481.5" y="285" width="126" height="122" as="geometry"/>
                </mxCell>
                <mxCell id="365" value="" style="endArrow=classic;html=1;fontSize=18;strokeWidth=4;strokeColor=#000000;" parent="1" edge="1">
                    <mxGeometry width="50" height="50" relative="1" as="geometry">
                        <mxPoint x="367.5" y="353.11" as="sourcePoint"/>
                        <mxPoint x="481.50000000000045" y="352.9999999999999" as="targetPoint"/>
                    </mxGeometry>
                </mxCell>
                <mxCell id="366" value="&lt;font style=&quot;font-size: 23px;&quot;&gt;&lt;b&gt;ALU_sel&lt;/b&gt;&lt;/font&gt;&lt;b style=&quot;font-size: 23px;&quot;&gt;[2:0]&lt;/b&gt;" style="edgeLabel;html=1;align=center;verticalAlign=middle;resizable=0;points=[];fontSize=18;rotation=0;fontColor=#000000;labelBackgroundColor=none;" parent="365" vertex="1" connectable="0">
                    <mxGeometry x="-0.1718" y="-9" relative="1" as="geometry">
                        <mxPoint x="-13" y="-33" as="offset"/>
                    </mxGeometry>
                </mxCell>
                <mxCell id="369" value="" style="endArrow=classic;html=1;fontSize=18;strokeWidth=4;strokeColor=#000000;" parent="1" edge="1">
                    <mxGeometry width="50" height="50" relative="1" as="geometry">
                        <mxPoint x="566.2300000000002" y="1777" as="sourcePoint"/>
                        <mxPoint x="641.77" y="1777" as="targetPoint"/>
                    </mxGeometry>
                </mxCell>
                <mxCell id="371" value="&lt;font style=&quot;font-size: 20px;&quot; color=&quot;#000000&quot;&gt;ShiftR 2&lt;/font&gt;" style="rounded=0;whiteSpace=wrap;html=1;fillColor=none;strokeColor=#000000;strokeWidth=3;" parent="1" vertex="1">
                    <mxGeometry x="642" y="1747" width="103" height="68" as="geometry"/>
                </mxCell>
                <mxCell id="373" value="" style="endArrow=classic;html=1;fontSize=18;strokeWidth=4;strokeColor=#000000;" parent="1" edge="1">
                    <mxGeometry width="50" height="50" relative="1" as="geometry">
                        <mxPoint x="748.4600000000003" y="1780.23" as="sourcePoint"/>
                        <mxPoint x="824" y="1780.23" as="targetPoint"/>
                    </mxGeometry>
                </mxCell>
                <mxCell id="374" value="&lt;b style=&quot;&quot;&gt;&lt;font style=&quot;font-size: 20px;&quot;&gt;t6&lt;/font&gt;&lt;/b&gt;" style="edgeLabel;html=1;align=center;verticalAlign=middle;resizable=0;points=[];fontSize=18;rotation=0;fontColor=#000000;labelBackgroundColor=none;" parent="1" vertex="1" connectable="0">
                    <mxGeometry x="576.0000000000002" y="1814.9953846153849" as="geometry">
                        <mxPoint x="260" y="-34" as="offset"/>
                    </mxGeometry>
                </mxCell>
                <mxCell id="375" value="" style="endArrow=none;html=1;strokeColor=#000000;strokeWidth=4;fontSize=20;fontColor=#000000;" parent="1" edge="1">
                    <mxGeometry width="50" height="50" relative="1" as="geometry">
                        <mxPoint x="156" y="212" as="sourcePoint"/>
                        <mxPoint x="156" y="1870" as="targetPoint"/>
                    </mxGeometry>
                </mxCell>
                <mxCell id="376" value="" style="endArrow=none;html=1;strokeColor=#000000;strokeWidth=4;fontSize=20;fontColor=#000000;" parent="1" edge="1">
                    <mxGeometry width="50" height="50" relative="1" as="geometry">
                        <mxPoint x="156" y="212" as="sourcePoint"/>
                        <mxPoint x="1740" y="201" as="targetPoint"/>
                    </mxGeometry>
                </mxCell>
                <mxCell id="377" value="" style="endArrow=none;html=1;strokeColor=#000000;strokeWidth=4;fontSize=20;fontColor=#000000;" parent="1" edge="1">
                    <mxGeometry width="50" height="50" relative="1" as="geometry">
                        <mxPoint x="1736" y="201" as="sourcePoint"/>
                        <mxPoint x="1744" y="1858" as="targetPoint"/>
                    </mxGeometry>
                </mxCell>
                <mxCell id="378" value="" style="endArrow=none;html=1;strokeColor=#000000;strokeWidth=4;fontSize=20;fontColor=#000000;" parent="1" edge="1">
                    <mxGeometry width="50" height="50" relative="1" as="geometry">
                        <mxPoint x="1744" y="1859" as="sourcePoint"/>
                        <mxPoint x="154" y="1866" as="targetPoint"/>
                    </mxGeometry>
                </mxCell>
                <mxCell id="382" value="&lt;font style=&quot;font-size: 21px;&quot;&gt;&lt;b&gt;MUX 5&lt;br&gt;&lt;/b&gt;&lt;/font&gt;" style="shape=trapezoid;perimeter=trapezoidPerimeter;whiteSpace=wrap;html=1;fixedSize=1;rounded=0;strokeColor=#000000;strokeWidth=3;fontSize=19;fontColor=#000000;fillColor=none;rotation=0;direction=west;" vertex="1" parent="1">
                    <mxGeometry x="494" y="2177" width="129" height="59" as="geometry"/>
                </mxCell>
                <mxCell id="383" value="&lt;font style=&quot;font-size: 26px;&quot; color=&quot;#000000&quot;&gt;&lt;b&gt;Multiplier 2&lt;/b&gt;&lt;/font&gt;" style="rounded=1;whiteSpace=wrap;html=1;fillColor=none;strokeColor=#000000;strokeWidth=3;" vertex="1" parent="1">
                    <mxGeometry x="644" y="1937" width="174" height="84" as="geometry"/>
                </mxCell>
                <mxCell id="384" value="&lt;font style=&quot;font-size: 25px;&quot; color=&quot;#000000&quot;&gt;&lt;b&gt;Multiplier 1&lt;/b&gt;&lt;/font&gt;" style="rounded=1;whiteSpace=wrap;html=1;fillColor=none;strokeColor=#000000;strokeWidth=3;" vertex="1" parent="1">
                    <mxGeometry x="892" y="1937" width="174" height="84" as="geometry"/>
                </mxCell>
                <mxCell id="385" value="&lt;font style=&quot;font-size: 34px;&quot; color=&quot;#000000&quot;&gt;ALU&lt;/font&gt;" style="rounded=1;whiteSpace=wrap;html=1;fillColor=none;strokeColor=#000000;strokeWidth=3;" vertex="1" parent="1">
                    <mxGeometry x="1153" y="1939" width="190" height="80" as="geometry"/>
                </mxCell>
                <mxCell id="388" value="&lt;b&gt;&lt;font style=&quot;font-size: 19px;&quot; color=&quot;#000000&quot;&gt;REG 1&lt;/font&gt;&lt;span style=&quot;color: rgba(0, 0, 0, 0); font-family: monospace; font-size: 0px; text-align: start;&quot;&gt;%3E%3Croot%3E%3CmxCell%20id%3D%220%22%2F%3E%3CmxCell%20id%3D%221%22%20parent%3D%220%22%2F%3E%3CmxCell%20id%3D%222%22%20value%3D%22%26lt%3Bfont%20style%3D%26quot%3Bfont-size%3A%2019px%3B%26quot%3B%20color%3D%26quot%3B%23000000%26quot%3B%26gt%3BMultiplier%201%26lt%3B%2Ffont%26gt%3B%22%20style%3D%22rounded%3D1%3BwhiteSpace%3Dwrap%3Bhtml%3D1%3BfillColor%3Dnone%3BstrokeColor%3D%23000000%3BstrokeWidth%3D3%3B%22%20vertex%3D%221%22%20parent%3D%221%22%3E%3CmxGeometry%20x%3D%22220%22%20y%3D%22680%22%20width%3D%22140%22%20height%3D%2250%22%20as%3D%22geometry%22%2F%3E%3C%2FmxCell%3E%3C%2Froot%3E%3C%2FmxGraphModel%&lt;/span&gt;&lt;/b&gt;" style="rounded=0;whiteSpace=wrap;html=1;fillColor=none;strokeColor=#000000;strokeWidth=3;" vertex="1" parent="1">
                    <mxGeometry x="831" y="2294" width="140" height="50" as="geometry"/>
                </mxCell>
                <mxCell id="389" value="&lt;b&gt;&lt;font style=&quot;font-size: 19px;&quot; color=&quot;#000000&quot;&gt;REG 2&lt;/font&gt;&lt;span style=&quot;color: rgba(0, 0, 0, 0); font-family: monospace; font-size: 0px; text-align: start;&quot;&gt;%3E%3Croot%3E%3CmxCell%20id%3D%220%22%2F%3E%3CmxCell%20id%3D%221%22%20parent%3D%220%22%2F%3E%3CmxCell%20id%3D%222%22%20value%3D%22%26lt%3Bfont%20style%3D%26quot%3Bfont-size%3A%2019px%3B%26quot%3B%20color%3D%26quot%3B%23000000%26quot%3B%26gt%3BMultiplier%201%26lt%3B%2Ffont%26gt%3B%22%20style%3D%22rounded%3D1%3BwhiteSpace%3Dwrap%3Bhtml%3D1%3BfillColor%3Dnone%3BstrokeColor%3D%23000000%3BstrokeWidth%3D3%3B%22%20vertex%3D%221%22%20parent%3D%221%22%3E%3CmxGeometry%20x%3D%22220%22%20y%3D%22680%22%20width%3D%22140%22%20height%3D%2250%22%20as%3D%22geometry%22%2F%3E%3C%2FmxCell%3E%3C%2Froot%3E%3C%2FmxGraphModel%3E&lt;/span&gt;&lt;/b&gt;" style="rounded=0;whiteSpace=wrap;html=1;fillColor=none;strokeColor=#000000;strokeWidth=3;" vertex="1" parent="1">
                    <mxGeometry x="706" y="2077" width="140" height="50" as="geometry"/>
                </mxCell>
                <mxCell id="390" value="&lt;b&gt;&lt;font style=&quot;font-size: 19px;&quot; color=&quot;#000000&quot;&gt;REG 3&lt;/font&gt;&lt;span style=&quot;color: rgba(0, 0, 0, 0); font-family: monospace; font-size: 0px; text-align: start;&quot;&gt;%3E%3Croot%3E%3CmxCell%20id%3D%220%22%2F%3E%3CmxCell%20id%3D%221%22%20parent%3D%220%22%2F%3E%3CmxCell%20id%3D%222%22%20value%3D%22%26lt%3Bfont%20style%3D%26quot%3Bfont-size%3A%2019px%3B%26quot%3B%20color%3D%26quot%3B%23000000%26quot%3B%26gt%3BMultiplier%201%26lt%3B%2Ffont%26gt%3B%22%20style%3D%22rounded%3D1%3BwhiteSpace%3Dwrap%3Bhtml%3D1%3BfillColor%3Dnone%3BstrokeColor%3D%23000000%3BstrokeWidth%3D3%3B%22%20vertex%3D%221%22%20parent%3D%221%22%3E%3CmxGeometry%20x%3D%22220%22%20y%3D%22680%22%20width%3D%22140%22%20height%3D%2250%22%20as%3D%22geometry%22%2F%3E%3C%2FmxCell%3E%3C%2Froot%3E%3C%2FmxGraphModel%&lt;/span&gt;&lt;/b&gt;" style="rounded=0;whiteSpace=wrap;html=1;fillColor=none;strokeColor=#000000;strokeWidth=3;" vertex="1" parent="1">
                    <mxGeometry x="969" y="2109" width="140" height="50" as="geometry"/>
                </mxCell>
                <mxCell id="391" value="&lt;b&gt;&lt;font style=&quot;font-size: 19px;&quot; color=&quot;#000000&quot;&gt;REG 4&lt;/font&gt;&lt;span style=&quot;color: rgba(0, 0, 0, 0); font-family: monospace; font-size: 0px; text-align: start;&quot;&gt;%3E%3Croot%3E%3CmxCell%20id%3D%220%22%2F%3E%3CmxCell%20id%3D%221%22%20parent%3D%220%22%2F%3E%3CmxCell%20id%3D%222%22%20value%3D%22%26lt%3Bfont%20style%3D%26quot%3Bfont-size%3A%2019px%3B%26quot%3B%20color%3D%26quot%3B%23000000%26quot%3B%26gt%3BMultiplier%201%26lt%3B%2Ffont%26gt%3B%22%20style%3D%22rounded%3D1%3BwhiteSpace%3Dwrap%3Bhtml%3D1%3BfillColor%3Dnone%3BstrokeColor%3D%23000000%3BstrokeWidth%3D3%3B%22%20vertex%3D%221%22%20parent%3D%221%22%3E%3CmxGeometry%20x%3D%22220%22%20y%3D%22680%22%20width%3D%22140%22%20height%3D%2250%22%20as%3D%22geometry%22%2F%3E%3C%2FmxCell%3E%3C%2Froot%3E%3C%2FmxGraphModel%&lt;/span&gt;&lt;/b&gt;" style="rounded=0;whiteSpace=wrap;html=1;fillColor=none;strokeColor=#000000;strokeWidth=3;" vertex="1" parent="1">
                    <mxGeometry x="1035" y="2289" width="140" height="50" as="geometry"/>
                </mxCell>
            </root>
        </mxGraphModel>
    </diagram>
</mxfile>